<svg width="13" height="14" viewBox="0 0 13 14" fill="none" xmlns="http://www.w3.org/2000/svg">
<path d="M5 0.00195312C3.89543 0.00195312 3 0.897382 3 2.00195V4.20703C3.32228 4.11588 3.65659 4.05337 4 4.02242V2.00195C4 1.44967 4.44771 1.00195 5 1.00195H7.99951V3.5029C7.99951 4.33133 8.67108 5.0029 9.49951 5.0029H12V11.998C12 12.5503 11.5523 12.998 11 12.998H8.74446C8.43145 13.3774 8.06858 13.7141 7.66586 13.998H11C12.1046 13.998 13 13.1026 13 11.998V4.41892C13 4.021 12.8419 3.63938 12.5605 3.35806L9.64243 0.441098C9.36114 0.159912 8.97969 0.00195312 8.58196 0.00195312H5ZM8.99951 3.5029V1.21237L11.7911 4.0029H9.49951C9.22337 4.0029 8.99951 3.77904 8.99951 3.5029ZM9 9.5C9 7.01472 6.98528 5 4.5 5C2.01472 5 0 7.01472 0 9.5C0 11.9853 2.01472 14 4.5 14C6.98528 14 9 11.9853 9 9.5ZM4.49993 11.3804C4.84484 11.3804 5.12444 11.66 5.12444 12.0049C5.12444 12.3498 4.84484 12.6294 4.49993 12.6294C4.15502 12.6294 3.87542 12.3498 3.87542 12.0049C3.87542 11.66 4.15502 11.3804 4.49993 11.3804ZM4.49997 6.50345C5.53102 6.50345 6.35337 7.34924 6.35337 8.45294C6.35337 9.0387 6.13905 9.36068 5.62574 9.7715L5.34869 9.98581C5.10295 10.1804 5.02024 10.2863 5.0034 10.4341L4.99187 10.5902C4.94952 10.8234 4.74537 11.0003 4.49991 11.0003C4.22376 11.0003 3.99992 10.7764 3.99993 10.5003C3.99995 9.92938 4.20993 9.61614 4.7157 9.21183L4.99369 8.9968C5.28218 8.7679 5.35337 8.65474 5.35337 8.45294C5.35337 7.89534 4.97235 7.50345 4.49997 7.50345C4.0062 7.50345 3.64099 7.86913 3.64655 8.44814C3.6492 8.72427 3.4275 8.95026 3.15137 8.95292C2.87524 8.95557 2.64924 8.73387 2.64659 8.45774C2.63568 7.32084 3.45202 6.50345 4.49997 6.50345Z" fill="white"/>
</svg>
