<svg width="24" height="24" viewBox="0 0 24 24" fill="none" xmlns="http://www.w3.org/2000/svg">
<path d="M2.25627 1.15485L2.25602 1.15496C2.00918 1.25714 1.78488 1.40696 1.59594 1.59585C1.40709 1.78464 1.25726 2.00876 1.15499 2.25544C1.09825 2.39256 1.05195 2.5874 1.02655 2.95959C1.00054 3.34082 1 3.83114 1 4.55177V6.44815C1 7.16878 1.00054 7.65925 1.02655 8.04057C1.05195 8.41288 1.09825 8.6075 1.15483 8.74409L2.25627 1.15485ZM2.25627 1.15485C2.39289 1.09825 2.58739 1.05195 2.95951 1.02655C3.34064 1.00054 3.83091 1 4.55151 1H6.44835C7.16895 1 7.65922 1.00054 8.04035 1.02655C8.41247 1.05195 8.60697 1.09825 8.74359 1.15485L8.74384 1.15496M2.25627 1.15485L8.74384 1.15496M8.74384 1.15496C8.99068 1.25714 9.21498 1.40696 9.40393 1.59585M8.74384 1.15496L9.40393 1.59585M8.74359 9.84508L8.74377 9.845C9.24227 9.63859 9.63839 9.24261 9.84501 8.74415L8.74359 9.84508ZM8.74359 9.84508C8.60697 9.90168 8.41247 9.94797 8.04035 9.97337C7.65922 9.99938 7.16895 9.99993 6.44835 9.99993H4.55151C3.83091 9.99993 3.34064 9.99938 2.95951 9.97337C2.58739 9.94797 2.39289 9.90168 2.25627 9.84508L2.25602 9.84497M8.74359 9.84508L2.25602 9.84497M2.25602 9.84497C2.00918 9.74278 1.78488 9.59297 1.59593 9.40408M2.25602 9.84497L1.59593 9.40408M9.40393 1.59585C9.59285 1.78472 9.74273 2.00897 9.84501 2.25577L9.40393 1.59585ZM1.59593 9.40408C1.40701 9.2152 1.25713 8.99096 1.15485 8.74415L1.59593 9.40408ZM9.84503 2.25584C9.90161 2.39243 9.94791 2.58705 9.97331 2.95936C9.99932 3.34068 9.99986 3.83115 9.99986 4.55177V6.44815C9.99986 7.16878 9.99932 7.65925 9.97331 8.04057C9.94791 8.41281 9.90162 8.60743 9.84506 8.74402L9.84503 2.25584Z" stroke="#616D7A" stroke-width="2"/>
<path d="M2.25627 14.1548L2.25602 14.155C2.00918 14.2571 1.78488 14.407 1.59594 14.5958C1.40709 14.7846 1.25726 15.0088 1.15499 15.2554C1.09825 15.3926 1.05195 15.5874 1.02655 15.9596C1.00054 16.3408 1 16.8311 1 17.5518V19.4482C1 20.1688 1.00054 20.6592 1.02655 21.0406C1.05195 21.4129 1.09825 21.6075 1.15483 21.7441L2.25627 14.1548ZM2.25627 14.1548C2.39289 14.0982 2.58739 14.052 2.95951 14.0266C3.34064 14.0005 3.83091 14 4.55151 14H6.44835C7.16895 14 7.65922 14.0005 8.04035 14.0266C8.41247 14.052 8.60697 14.0982 8.74359 14.1548L8.74384 14.155M2.25627 14.1548L8.74384 14.155M8.74384 14.155C8.99068 14.2571 9.21498 14.407 9.40393 14.5958M8.74384 14.155L9.40393 14.5958M8.74359 22.8451L8.74377 22.845C9.24227 22.6386 9.63839 22.2426 9.84501 21.7442L8.74359 22.8451ZM8.74359 22.8451C8.60697 22.9017 8.41247 22.948 8.04035 22.9734C7.65922 22.9994 7.16895 22.9999 6.44835 22.9999H4.55151C3.83091 22.9999 3.34064 22.9994 2.95951 22.9734C2.58739 22.948 2.39289 22.9017 2.25627 22.8451L2.25602 22.845M8.74359 22.8451L2.25602 22.845M2.25602 22.845C2.00917 22.7428 1.78488 22.593 1.59594 22.4041M2.25602 22.845L1.59594 22.4041M9.40393 14.5958C9.59285 14.7847 9.74273 15.009 9.84501 15.2558L9.40393 14.5958ZM1.59594 22.4041C1.40701 22.2152 1.25713 21.991 1.15485 21.7442L1.59594 22.4041ZM9.84503 15.2558C9.90161 15.3924 9.94791 15.5871 9.97331 15.9594C9.99932 16.3407 9.99986 16.8311 9.99986 17.5518V19.4482C9.99986 20.1688 9.99932 20.6592 9.97331 21.0406C9.94791 21.4128 9.90162 21.6074 9.84506 21.744L9.84503 15.2558Z" stroke="#616D7A" stroke-width="2"/>
<path d="M15.2565 1.15485L15.2562 1.15496C15.0094 1.25715 14.7851 1.40696 14.5961 1.59585C14.4073 1.78464 14.2574 2.00876 14.1552 2.25544C14.0984 2.39256 14.0521 2.5874 14.0267 2.95959C14.0007 3.34082 14.0002 3.83114 14.0002 4.55177V6.44815C14.0002 7.16878 14.0007 7.65925 14.0267 8.04057C14.0521 8.41281 14.0984 8.60743 14.155 8.74402L15.2565 1.15485ZM15.2565 1.15485C15.3931 1.09825 15.5876 1.05195 15.9597 1.02655C16.3408 1.00054 16.8311 1 17.5517 1H19.4485C20.1691 1 20.6594 1.00054 21.0405 1.02655C21.4127 1.05195 21.6072 1.09825 21.7438 1.15485L21.744 1.15496M15.2565 1.15485L21.744 1.15496M21.744 1.15496C21.9909 1.25715 22.2152 1.40696 22.4041 1.59585M21.744 1.15496L22.4041 1.59585M21.7438 9.84508L21.744 9.845C22.2425 9.63857 22.6386 9.24254 22.8452 8.74402C22.9018 8.60743 22.9481 8.41281 22.9735 8.04057C22.9995 7.65925 23 7.16878 23 6.44815V4.55177C23 3.83115 22.9995 3.34068 22.9735 2.95936C22.9481 2.58705 22.9018 2.39243 22.8452 2.25584L21.7438 9.84508ZM21.7438 9.84508C21.6072 9.90168 21.4127 9.94797 21.0405 9.97337C20.6594 9.99938 20.1691 9.99993 19.4485 9.99993H17.5517C16.8311 9.99993 16.3408 9.99938 15.9597 9.97337C15.5876 9.94797 15.3931 9.90168 15.2565 9.84508L15.2563 9.845M21.7438 9.84508L15.2563 9.845M15.2563 9.845C14.7578 9.63858 14.3617 9.24261 14.155 8.74415L15.2563 9.845ZM22.4041 1.59585C22.593 1.78472 22.7429 2.00897 22.8452 2.25578L22.4041 1.59585Z" stroke="#616D7A" stroke-width="2"/>
<path d="M15.2565 14.1548L15.2562 14.155C15.0094 14.2571 14.7851 14.407 14.5961 14.5958C14.4073 14.7846 14.2574 15.0088 14.1552 15.2554C14.0984 15.3926 14.0521 15.5874 14.0267 15.9596C14.0007 16.3408 14.0002 16.8311 14.0002 17.5518V19.4482C14.0002 20.1688 14.0007 20.6592 14.0267 21.0406C14.0521 21.4128 14.0984 21.6074 14.155 21.744L15.2565 14.1548ZM15.2565 14.1548C15.3931 14.0982 15.5876 14.052 15.9597 14.0266C16.3408 14.0005 16.8311 14 17.5517 14H19.4485C20.1691 14 20.6594 14.0005 21.0405 14.0266C21.4127 14.052 21.6072 14.0982 21.7438 14.1548L21.744 14.155M15.2565 14.1548L21.744 14.155M21.744 14.155C21.9909 14.2571 22.2152 14.407 22.4041 14.5958M21.744 14.155L22.4041 14.5958M21.7438 22.8451L21.744 22.845C22.2425 22.6386 22.6386 22.2425 22.8452 21.744C22.9018 21.6074 22.9481 21.4128 22.9735 21.0406C22.9995 20.6592 23 20.1688 23 19.4482V17.5518C23 16.8311 22.9995 16.3407 22.9735 15.9594C22.9481 15.587 22.9018 15.3924 22.8452 15.2558L21.7438 22.8451ZM21.7438 22.8451C21.6072 22.9017 21.4127 22.948 21.0405 22.9734C20.6594 22.9994 20.1691 22.9999 19.4485 22.9999H17.5517C16.8311 22.9999 16.3408 22.9994 15.9597 22.9734C15.5876 22.948 15.3931 22.9017 15.2565 22.8451L15.2563 22.845M21.7438 22.8451L15.2563 22.845M15.2563 22.845C14.7578 22.6386 14.3617 22.2426 14.155 21.7442L15.2563 22.845ZM22.4041 14.5958C22.593 14.7847 22.7429 15.009 22.8452 15.2558L22.4041 14.5958Z" stroke="#616D7A" stroke-width="2"/>
</svg>
