<svg width="24" height="24" viewBox="0 0 24 24" fill="none" xmlns="http://www.w3.org/2000/svg">
<path d="M14 3C12.0222 3 10.0888 3.58649 8.4443 4.6853C6.79981 5.78412 5.51809 7.3459 4.76121 9.17317C4.00433 11.0004 3.8063 13.0111 4.19215 14.9509C4.578 16.8907 5.53041 18.6725 6.92894 20.0711C8.32746 21.4696 10.1093 22.422 12.0491 22.8079C13.9889 23.1937 15.9996 22.9957 17.8268 22.2388C19.6541 21.4819 21.2159 20.2002 22.3147 18.5557C23.4135 16.9112 24 14.9778 24 13C23.997 10.3488 22.9424 7.80699 21.0677 5.93228C19.193 4.05758 16.6512 3.00303 14 3ZM14 21C12.4178 21 10.871 20.5308 9.55544 19.6518C8.23985 18.7727 7.21447 17.5233 6.60897 16.0615C6.00347 14.5997 5.84504 12.9911 6.15372 11.4393C6.4624 9.88743 7.22433 8.46197 8.34315 7.34315C9.46197 6.22433 10.8874 5.4624 12.4393 5.15372C13.9911 4.84504 15.5997 5.00346 17.0615 5.60896C18.5233 6.21447 19.7727 7.23984 20.6518 8.55544C21.5308 9.87103 22 11.4177 22 13C21.9976 15.121 21.1539 17.1544 19.6542 18.6542C18.1544 20.1539 16.121 20.9976 14 21ZM15 12.749V8C15 7.73478 14.8946 7.48043 14.7071 7.29289C14.5196 7.10536 14.2652 7 14 7C13.7348 7 13.4804 7.10536 13.2929 7.29289C13.1054 7.48043 13 7.73478 13 8V13C13.0001 13.1647 13.0407 13.3268 13.1182 13.4722L14.6182 16.271C14.7434 16.5049 14.9564 16.6794 15.2103 16.7563C15.4643 16.8331 15.7383 16.8059 15.9722 16.6807C16.2061 16.5554 16.3806 16.3424 16.4574 16.0885C16.5343 15.8346 16.5071 15.5605 16.3818 15.3267L15 12.749Z" />
<circle cx="6" cy="8" r="6" />
<path d="M6 3C5.0111 3 4.0444 3.29324 3.22215 3.84265C2.3999 4.39206 1.75904 5.17295 1.3806 6.08658C1.00217 7.00021 0.90315 8.00555 1.09608 8.97545C1.289 9.94535 1.76521 10.8363 2.46447 11.5355C3.16373 12.2348 4.05464 12.711 5.02455 12.9039C5.99445 13.0969 6.99979 12.9978 7.91342 12.6194C8.82705 12.241 9.60794 11.6001 10.1573 10.7779C10.7068 9.9556 11 8.98891 11 8C10.9986 6.67434 10.4714 5.40337 9.53402 4.46598C8.59663 3.5286 7.32566 3.00137 6 3ZM6 10.5916C5.85821 10.5914 5.71965 10.5492 5.60182 10.4704C5.484 10.3915 5.3922 10.2794 5.33803 10.1484C5.28385 10.0174 5.26972 9.8732 5.29743 9.73413C5.32514 9.59507 5.39344 9.46734 5.4937 9.36708C5.59397 9.26681 5.7217 9.19851 5.86076 9.17081C5.99982 9.1431 6.14397 9.15723 6.27501 9.2114C6.40605 9.26558 6.51809 9.35738 6.59698 9.4752C6.67587 9.59302 6.71807 9.73158 6.71825 9.87338C6.71806 10.0638 6.64232 10.2464 6.50767 10.381C6.37301 10.5157 6.19043 10.5914 6 10.5916ZM6.24991 8.84598C6.22717 8.89293 6.19167 8.93252 6.14747 8.96023C6.10327 8.98793 6.05216 9.00262 6 9.00262C5.94784 9.00262 5.89673 8.98793 5.85253 8.96023C5.80833 8.93252 5.77283 8.89293 5.75009 8.84598C5.72233 8.7886 5.06146 7.43169 5.06146 6.34876C5.06146 6.09984 5.16034 5.86112 5.33635 5.68511C5.51236 5.5091 5.75108 5.41022 6 5.41022C6.24892 5.41022 6.48764 5.5091 6.66365 5.68511C6.83966 5.86112 6.93854 6.09984 6.93854 6.34876C6.93854 7.43169 6.27768 8.7886 6.24991 8.84598Z" />
</svg>
