<svg width="24" height="24" viewBox="0 0 24 24" fill="none" xmlns="http://www.w3.org/2000/svg">
<path fill-rule="evenodd" clip-rule="evenodd" d="M4.669 4.82401C6.67592 3.00291 9.28999 1.99594 12 2.00001C15.836 2.00001 19.21 3.97501 21.162 6.96901C21.3069 7.19126 21.5342 7.34684 21.7939 7.4015C22.0535 7.45617 22.3242 7.40545 22.5465 7.26051C22.7688 7.11557 22.9243 6.88828 22.979 6.62863C23.0337 6.36899 22.9829 6.09826 22.838 5.87601C21.6641 4.07109 20.0578 2.58814 18.1651 1.56194C16.2723 0.535738 14.1531 -0.00116889 12 1.35539e-05C9.12199 -0.00416064 6.32553 0.955922 4.057 2.72701L2.707 1.37701C2.56715 1.2372 2.38899 1.142 2.19503 1.10343C2.00108 1.06486 1.80005 1.08467 1.61735 1.16034C1.43465 1.23601 1.27848 1.36415 1.1686 1.52856C1.05872 1.69297 1.00004 1.88626 1 2.08401V6.42201C0.999714 6.63768 1.06915 6.84765 1.19797 7.02062C1.32678 7.19359 1.50805 7.32028 1.71476 7.3818C1.92146 7.44332 2.14251 7.43636 2.34494 7.36197C2.54737 7.28758 2.72032 7.14974 2.838 6.96901C3.35329 6.17834 3.96936 5.4574 4.669 4.82401ZM14 12C14 12.5304 13.7893 13.0392 13.4142 13.4142C13.0391 13.7893 12.5304 14 12 14C11.4696 14 10.9609 13.7893 10.5858 13.4142C10.2107 13.0392 10 12.5304 10 12C10 11.4696 10.2107 10.9609 10.5858 10.5858C10.9609 10.2107 11.4696 10 12 10C12.5304 10 13.0391 10.2107 13.4142 10.5858C13.7893 10.9609 14 11.4696 14 12ZM7 7C6.20435 7 5.44129 7.31607 4.87868 7.87868C4.31607 8.44129 4 9.20435 4 10V14C4 14.7956 4.31607 15.5587 4.87868 16.1213C5.44129 16.6839 6.20435 17 7 17H17C17.7956 17 18.5587 16.6839 19.1213 16.1213C19.6839 15.5587 20 14.7956 20 14V10C20 9.20435 19.6839 8.44129 19.1213 7.87868C18.5587 7.31607 17.7956 7 17 7H7ZM6 10C6 9.73478 6.10536 9.48043 6.29289 9.29289C6.48043 9.10536 6.73478 9 7 9H17C17.2652 9 17.5196 9.10536 17.7071 9.29289C17.8946 9.48043 18 9.73478 18 10V14C18 14.2652 17.8946 14.5196 17.7071 14.7071C17.5196 14.8946 17.2652 15 17 15H7C6.73478 15 6.48043 14.8946 6.29289 14.7071C6.10536 14.5196 6 14.2652 6 14V10ZM12.001 22.0005C14.7107 22.0043 17.3243 20.9973 19.331 19.1765H19.332C20.0316 18.5434 20.6466 17.8228 21.162 17.0325C21.2796 16.8518 21.4525 16.714 21.6548 16.6396C21.8571 16.5652 22.0781 16.5581 22.2848 16.6195C22.4914 16.6809 22.6727 16.8074 22.8016 16.9802C22.9305 17.153 23.0001 17.3629 23 17.5785V21.9165C23 22.1142 22.9413 22.3075 22.8314 22.4719C22.7215 22.6363 22.5653 22.7645 22.3827 22.8401C22.2 22.9158 21.9989 22.9356 21.805 22.897C21.611 22.8585 21.4328 22.7633 21.293 22.6235L19.943 21.2735C17.752 22.9815 14.994 24.0005 12 24.0005C9.84693 24.0016 7.72771 23.4647 5.83493 22.4385C3.94216 21.4123 2.33585 19.9294 1.162 18.1245C1.0903 18.0144 1.04097 17.8913 1.01684 17.7622C0.99271 17.6331 0.994246 17.5005 1.02136 17.372C1.04848 17.2435 1.10064 17.1215 1.17487 17.0132C1.2491 16.9048 1.34395 16.8122 1.454 16.7405C1.56404 16.6688 1.68714 16.6194 1.81625 16.5953C1.94536 16.5712 2.07796 16.5727 2.20647 16.5998C2.33499 16.6269 2.45691 16.6791 2.56526 16.7533C2.67362 16.8276 2.7663 16.9224 2.838 17.0325C4.79 20.0255 8.164 22.0005 12.001 22.0005Z" />
</svg>
