<svg width="20" height="20" viewBox="0 0 20 20" fill="none" xmlns="http://www.w3.org/2000/svg">
<path d="M3.84667 16.6663C3.46278 16.6663 3.1425 16.538 2.88583 16.2813C2.62917 16.0247 2.50056 15.7041 2.5 15.3197V4.67967C2.5 4.29579 2.62861 3.97551 2.88583 3.71884C3.14306 3.46217 3.46306 3.33356 3.84583 3.33301H16.1542C16.5375 3.33301 16.8575 3.46162 17.1142 3.71884C17.3708 3.97606 17.4994 4.29634 17.5 4.67967V15.3205C17.5 15.7038 17.3714 16.0241 17.1142 16.2813C16.8569 16.5386 16.5369 16.6669 16.1542 16.6663H3.84667ZM3.84667 15.833H16.1542C16.2819 15.833 16.3994 15.7797 16.5067 15.673C16.6139 15.5663 16.6672 15.4486 16.6667 15.3197V4.67967C16.6667 4.55134 16.6133 4.43356 16.5067 4.32634C16.4 4.21912 16.2825 4.16579 16.1542 4.16634H3.84583C3.71806 4.16634 3.60056 4.21967 3.49333 4.32634C3.38611 4.43301 3.33278 4.55079 3.33333 4.67967V15.3205C3.33333 15.4483 3.38667 15.5658 3.49333 15.673C3.6 15.7802 3.7175 15.8336 3.84583 15.833M7.5 13.7497C7.61889 13.7497 7.71806 13.71 7.7975 13.6305C7.87694 13.5511 7.91667 13.4519 7.91667 13.333C7.91667 13.2141 7.87694 13.115 7.7975 13.0355C7.71806 12.9561 7.61889 12.9163 7.5 12.9163H5C4.88167 12.9163 4.7825 12.9561 4.7025 13.0355C4.6225 13.115 4.58278 13.2141 4.58333 13.333C4.58389 13.4519 4.62361 13.5511 4.7025 13.6305C4.78139 13.71 4.88056 13.7497 5 13.7497H7.5ZM7.5 10.4163C7.61889 10.4163 7.71806 10.3766 7.7975 10.2972C7.87694 10.2177 7.91667 10.1186 7.91667 9.99967C7.91667 9.88078 7.87694 9.78162 7.7975 9.70217C7.71806 9.62273 7.61889 9.58301 7.5 9.58301H5C4.88167 9.58301 4.7825 9.62273 4.7025 9.70217C4.6225 9.78162 4.58278 9.88078 4.58333 9.99967C4.58389 10.1186 4.62361 10.2177 4.7025 10.2972C4.78139 10.3766 4.88056 10.4163 5 10.4163H7.5ZM7.5 7.08301C7.61889 7.08301 7.71806 7.04329 7.7975 6.96384C7.87694 6.8844 7.91667 6.78523 7.91667 6.66634C7.91667 6.54745 7.87694 6.44829 7.7975 6.36884C7.71806 6.2894 7.61889 6.24967 7.5 6.24967H5C4.88167 6.24967 4.7825 6.2894 4.7025 6.36884C4.6225 6.44829 4.58278 6.54745 4.58333 6.66634C4.58389 6.78523 4.62361 6.8844 4.7025 6.96384C4.78139 7.04329 4.88056 7.08301 5 7.08301H7.5Z" fill="white"/>
<path d="M12.6042 12.4834C12.604 12.2187 12.6938 11.9618 12.859 11.7549L12.5841 11.0795L12.7897 10.9685C12.8265 10.9485 12.8612 10.9249 12.8934 10.8981L13.1281 10.6667L13.534 11.3368C13.771 11.2868 14.0176 11.3114 14.2399 11.4073C14.4623 11.5031 14.6495 11.6655 14.7759 11.8721C14.9022 12.0788 14.9614 12.3194 14.9453 12.5611C14.9293 12.8027 14.8388 13.0334 14.6862 13.2215C14.5337 13.4096 14.3267 13.5458 14.0935 13.6114C13.8604 13.6771 13.6127 13.6688 13.3845 13.5879C13.1562 13.507 12.9587 13.3574 12.8189 13.1596C12.6792 12.9618 12.6042 12.7256 12.6042 12.4834ZM14.4271 12.4834C14.4271 12.3547 14.3889 12.2288 14.3174 12.1217C14.2458 12.0147 14.1441 11.9312 14.0252 11.882C13.9062 11.8327 13.7753 11.8198 13.649 11.8449C13.5227 11.87 13.4067 11.932 13.3157 12.0231C13.2246 12.1141 13.1626 12.2301 13.1375 12.3564C13.1124 12.4827 13.1253 12.6136 13.1745 12.7326C13.2238 12.8515 13.3073 12.9532 13.4143 13.0248C13.5214 13.0963 13.6473 13.1345 13.776 13.1345C13.9487 13.1345 14.1143 13.0659 14.2364 12.9438C14.3585 12.8217 14.4271 12.6561 14.4271 12.4834Z" fill="white"/>
<path d="M13.4994 6.35503L13.7041 6.44488C13.8737 6.51779 13.9645 6.68479 13.9946 6.97841C14.0109 7.14312 14.0148 7.41705 13.9326 7.78716C13.8602 8.11268 13.4736 9.77512 12.9785 10.4719C12.7443 10.8015 12.4305 10.8635 12.1784 10.9123C11.9482 10.9576 11.7664 10.9937 11.6087 11.2053C11.4274 11.4494 11.3421 11.6491 11.306 11.7518C11.4784 11.969 11.5679 12.2404 11.5585 12.5175C11.5491 12.7946 11.4414 13.0593 11.2546 13.2642C11.0679 13.4692 10.8143 13.601 10.5393 13.6361C10.2643 13.6712 9.98574 13.6073 9.75353 13.4558C9.52132 13.3043 9.35059 13.0751 9.27189 12.8093C9.19319 12.5434 9.21167 12.2582 9.324 12.0048C9.43634 11.7513 9.63521 11.546 9.88503 11.4258C10.1348 11.3055 10.4193 11.2781 10.6875 11.3484L13.4994 6.35503ZM12.0833 10.0093C12.0833 10.0608 12.0986 10.1112 12.1272 10.154C12.1558 10.1968 12.1965 10.2302 12.2441 10.2499C12.2917 10.2696 12.344 10.2748 12.3946 10.2647C12.4451 10.2547 12.4915 10.2299 12.5279 10.1935C12.5643 10.1571 12.5891 10.1107 12.5992 10.0601C12.6092 10.0096 12.6041 9.95726 12.5844 9.90967C12.5646 9.86209 12.5313 9.82142 12.4884 9.7928C12.4456 9.76419 12.3953 9.74891 12.3438 9.74891C12.2747 9.74891 12.2085 9.77635 12.1596 9.82519C12.1108 9.87403 12.0833 9.94026 12.0833 10.0093ZM9.73959 12.4833C9.73959 12.6121 9.77777 12.7379 9.84931 12.845C9.92085 12.9521 10.0225 13.0355 10.1415 13.0848C10.2605 13.134 10.3914 13.1469 10.5176 13.1218C10.6439 13.0967 10.7599 13.0347 10.851 12.9436C10.942 12.8526 11.004 12.7366 11.0292 12.6103C11.0543 12.484 11.0414 12.3531 10.9921 12.2341C10.9428 12.1152 10.8594 12.0135 10.7523 11.942C10.6453 11.8704 10.5194 11.8322 10.3906 11.8322C10.218 11.8322 10.0524 11.9008 9.93028 12.0229C9.80818 12.145 9.73959 12.3106 9.73959 12.4833Z" fill="white"/>
<path d="M12.0204 8.57259L11.2362 9.93555L11.0233 9.48584L10.995 9.42692C10.8477 9.12256 10.4557 8.31299 10.4069 7.48633C10.4032 7.42301 10.4014 7.36475 10.4014 7.31087C10.4019 6.97412 10.4883 6.79509 10.5534 6.68522L10.7813 6.35563L12.0204 8.57259Z" fill="white"/>
</svg>
