<svg width="24" height="24" viewBox="0 0 24 24" xmlns="http://www.w3.org/2000/svg">
<path fill-rule="evenodd" clip-rule="evenodd" d="M12 2.66667C6.84534 2.66667 2.66667 6.84534 2.66667 12C2.66667 17.1547 6.84534 21.3333 12 21.3333C17.1547 21.3333 21.3333 17.1547 21.3333 12C21.3333 6.84534 17.1547 2.66667 12 2.66667ZM0 12C0 5.37258 5.37258 0 12 0C18.6274 0 24 5.37258 24 12C24 18.6274 18.6274 24 12 24C5.37258 24 0 18.6274 0 12ZM9.77778 11.1111C9.77778 10.3747 10.3747 9.77778 11.1111 9.77778H12C12.7364 9.77778 13.3333 10.3747 13.3333 11.1111V16.0759C13.8512 16.2589 14.2222 16.7528 14.2222 17.3333C14.2222 18.0697 13.6253 18.6667 12.8889 18.6667H12C11.2636 18.6667 10.6667 18.0697 10.6667 17.3333V12.3686C10.1488 12.1855 9.77778 11.6917 9.77778 11.1111ZM13.7777 6.66667C13.7777 7.64851 12.9817 8.44444 11.9999 8.44444C11.0181 8.44444 10.2221 7.64851 10.2221 6.66667C10.2221 5.68483 11.0181 4.88889 11.9999 4.88889C12.9817 4.88889 13.7777 5.68483 13.7777 6.66667Z" />
</svg>
