<svg width="861" height="212" viewBox="0 0 861 212" fill="none" xmlns="http://www.w3.org/2000/svg">
<path d="M0 11V140.5L49 76L0 11Z" fill="#028FAB"/>
<path d="M123.5 113.5L49 212L6 156L123.5 0V113.5Z" fill="#C43334"/>
<path fill-rule="evenodd" clip-rule="evenodd" d="M580.452 48.5996C600.376 48.5902 595.592 80.0767 576.778 74.3543C562.989 70.1602 565.354 48.6067 580.452 48.5996ZM206.6 70.4822C200.342 77.6943 187.876 75.4005 184.833 66.4714C181.078 55.4535 190.615 45.8704 201.532 49.7833C209.776 52.7378 212.237 63.9858 206.6 70.4822ZM626.504 61.2578V89.1097H647.817V106.039H627.323L626.504 106.859V150.002C626.504 154.393 628.397 160.972 631.136 164.487C634.796 169.186 640.91 171.118 646.724 171.027V188.503C645.156 187.897 643.536 187.941 641.922 187.984C640.893 188.012 639.866 188.04 638.858 187.899C626.575 186.179 615.643 178.67 611.179 166.954C610.546 165.293 608.469 158.49 608.469 157.101V106.039H599.725V89.1097H608.469L607.923 61.2578H626.504ZM498.464 161.717C490.759 183.511 467.426 189.343 446.257 187.677C422.768 185.828 403.87 165.82 402.18 142.552C399.527 106.048 429.096 82.1348 464.412 88.4693C491.594 93.345 506.517 117.778 504.413 144.423H421.669C422.706 158.745 434.982 169.623 448.989 170.896C460.296 171.923 468.8 171.29 476.85 163.06C477.16 162.742 477.257 162.221 477.311 161.93C477.335 161.801 477.351 161.717 477.373 161.717H498.464ZM484.944 128.21C478.507 96.6523 428.375 96.4124 422.21 128.21H484.944ZM734.043 100.206V89.3271H752.55V185.606H734.043V166.568L731.548 171.418C696.609 210.985 639.111 174.709 653.204 124.133C662.896 89.3497 706.65 79.8035 734.043 100.206ZM697.452 106.34C657.029 110.892 660.751 174.072 703.826 171.456C746.245 168.881 742.001 101.324 697.452 106.34ZM239.064 95.4439L238.786 89.4674H221.404V185.549H239.873V128.28C239.873 102.266 278.127 99.494 284.257 120.839C286.104 127.268 285.922 135.398 285.741 143.481C285.611 149.31 285.481 155.115 286.113 160.24C288.537 179.89 300.081 188.976 319.724 189.348V172.521C309.041 171.506 304.764 167.137 303.952 156.526C303.564 151.457 303.722 146.36 303.878 141.277C304.197 130.958 304.513 120.693 300.267 110.811C290.365 87.7696 259.161 84.1648 239.064 95.4439ZM854.535 89.417L819.349 135.702L819.524 135.941C824.032 142.08 828.598 148.299 833.383 154.215C834.006 154.985 834.691 155.868 835.428 156.817L835.429 156.818L835.44 156.832L835.441 156.834C839.592 162.182 845.373 169.63 850.836 170.944C852.091 171.246 853.356 171.234 854.575 171.222C856.34 171.206 858.009 171.19 859.42 172.128V188.67C838.253 192.327 826.746 176.144 815.862 160.838L815.861 160.837L815.861 160.836L815.86 160.835L815.86 160.835L815.859 160.834L815.858 160.833L815.858 160.833C812.934 156.721 810.055 152.672 807.045 149.088L779.365 185.416H755.756L794.181 136.338L759.555 89.417H782.079L807.045 122.491L831.469 89.417H854.535ZM357.151 162.936L328.079 89.6104H307.969L347.369 185.204L367.505 185.783L368.211 185.654C368.387 185.057 368.675 184.503 368.961 183.95L368.961 183.95L368.961 183.95L368.961 183.95L368.961 183.949L368.961 183.949L368.961 183.949C369.148 183.589 369.335 183.229 369.489 182.858C371.6 177.806 373.776 172.729 375.962 167.629C385.041 146.444 394.294 124.854 399.812 102.908C400.03 98.3814 399.808 94.0003 398.734 89.6104H378.081C380.28 97.0548 380.336 104.919 378.357 112.426L357.151 162.936ZM533.644 122.638C536.565 109.948 546.931 105.646 559.114 106.266V90.1375L558.294 89.3174H548.993C546.567 89.3174 538.703 91.8286 536.155 92.8901C521.805 98.8673 515.449 112.396 514.229 127.292L514.252 186.088H532.853V127.315C532.853 126.842 533.474 123.38 533.644 122.638ZM590.107 90.4453H571.939V184.96H590.107V90.4453ZM206.443 185.721V89.6104H188.275V185.721H206.443Z" fill="white"/>
</svg>
