<svg width="20" height="19" viewBox="0 0 20 19" fill="none" xmlns="http://www.w3.org/2000/svg">
<path d="M3.27087 3.95866C3.27087 3.43375 3.47939 2.93034 3.85056 2.55918C4.22172 2.18801 4.72513 1.97949 5.25004 1.97949H13.1667C13.6916 1.97949 14.195 2.18801 14.5662 2.55918C14.9374 2.93034 15.1459 3.43375 15.1459 3.95866V8.31283C15.1459 8.41781 15.1042 8.51849 15.0299 8.59272C14.9557 8.66696 14.855 8.70866 14.75 8.70866C14.6451 8.70866 14.5444 8.66696 14.4701 8.59272C14.3959 8.51849 14.3542 8.41781 14.3542 8.31283V3.95866C14.3542 3.64371 14.2291 3.34167 14.0064 3.11897C13.7837 2.89627 13.4817 2.77116 13.1667 2.77116H5.25004C4.9351 2.77116 4.63305 2.89627 4.41035 3.11897C4.18765 3.34167 4.06254 3.64371 4.06254 3.95866V15.3444C4.06254 15.4119 4.07981 15.4783 4.11269 15.5372C4.14558 15.5962 4.19299 15.6457 4.25043 15.6812C4.30786 15.7167 4.37341 15.7369 4.44085 15.7398C4.50828 15.7428 4.57536 15.7285 4.63571 15.6983L5.42737 15.3025C5.62457 15.204 5.84528 15.1624 6.06479 15.1822C6.2843 15.2021 6.49396 15.2826 6.67029 15.4149L7.38754 15.9524C7.45606 16.0038 7.53939 16.0316 7.62504 16.0316C7.71069 16.0316 7.79402 16.0038 7.86254 15.9524L8.54496 15.4402C8.73383 15.2986 8.96064 15.2164 9.19641 15.2043C9.43218 15.1922 9.66621 15.2506 9.86862 15.3721L10.4014 15.6919C10.4915 15.7459 10.5564 15.8334 10.582 15.9353C10.6075 16.0371 10.5915 16.145 10.5376 16.235C10.4836 16.3251 10.3961 16.3901 10.2942 16.4156C10.1924 16.4411 10.0846 16.4252 9.9945 16.3712L9.46092 16.0514C9.39353 16.0108 9.31559 15.9913 9.23706 15.9953C9.15852 15.9992 9.08294 16.0265 9.01996 16.0735L8.33754 16.5857C8.13199 16.7399 7.88198 16.8232 7.62504 16.8232C7.3681 16.8232 7.11809 16.7399 6.91254 16.5857L6.19529 16.0474C6.13644 16.0035 6.06655 15.9769 5.99343 15.9705C5.92032 15.9641 5.84685 15.9781 5.78125 16.011L4.98958 16.4068C4.80851 16.4974 4.60728 16.5402 4.40503 16.5311C4.20277 16.522 4.0062 16.4613 3.83398 16.3549C3.66177 16.2484 3.51963 16.0997 3.42108 15.9228C3.32252 15.746 3.27081 15.5469 3.27087 15.3444V3.95866Z" fill="white"/>
<path d="M5.64587 5.54134C5.64587 5.43636 5.68758 5.33568 5.76181 5.26144C5.83604 5.18721 5.93673 5.14551 6.04171 5.14551H11.1875C11.2925 5.14551 11.3932 5.18721 11.4674 5.26144C11.5417 5.33568 11.5834 5.43636 11.5834 5.54134C11.5834 5.64632 11.5417 5.747 11.4674 5.82124C11.3932 5.89547 11.2925 5.93717 11.1875 5.93717H6.04171C5.93673 5.93717 5.83604 5.89547 5.76181 5.82124C5.68758 5.747 5.64587 5.64632 5.64587 5.54134ZM5.64587 7.91634C5.64587 7.81136 5.68758 7.71068 5.76181 7.63644C5.83604 7.56221 5.93673 7.52051 6.04171 7.52051H12.375C12.48 7.52051 12.5807 7.56221 12.6549 7.63644C12.7292 7.71068 12.7709 7.81136 12.7709 7.91634C12.7709 8.02132 12.7292 8.122 12.6549 8.19624C12.5807 8.27047 12.48 8.31217 12.375 8.31217H6.04171C5.93673 8.31217 5.83604 8.27047 5.76181 8.19624C5.68758 8.122 5.64587 8.02132 5.64587 7.91634ZM5.64587 10.2913C5.64587 10.1864 5.68758 10.0857 5.76181 10.0114C5.83604 9.93721 5.93673 9.89551 6.04171 9.89551H8.81254C8.91752 9.89551 9.0182 9.93721 9.09244 10.0114C9.16667 10.0857 9.20837 10.1864 9.20837 10.2913C9.20837 10.3963 9.16667 10.497 9.09244 10.5712C9.0182 10.6455 8.91752 10.6872 8.81254 10.6872H6.04171C5.93673 10.6872 5.83604 10.6455 5.76181 10.5712C5.68758 10.497 5.64587 10.3963 5.64587 10.2913ZM5.64587 12.6663C5.64587 12.5614 5.68758 12.4607 5.76181 12.3864C5.83604 12.3122 5.93673 12.2705 6.04171 12.2705H8.81254C8.91752 12.2705 9.0182 12.3122 9.09244 12.3864C9.16667 12.4607 9.20837 12.5614 9.20837 12.6663C9.20837 12.7713 9.16667 12.872 9.09244 12.9462C9.0182 13.0205 8.91752 13.0622 8.81254 13.0622H6.04171C5.93673 13.0622 5.83604 13.0205 5.76181 12.9462C5.68758 12.872 5.64587 12.7713 5.64587 12.6663ZM14.3542 11.4788C13.7243 11.4788 13.1202 11.7291 12.6748 12.1745C12.2294 12.6199 11.9792 13.224 11.9792 13.8538C11.9792 14.4837 12.2294 15.0878 12.6748 15.5332C13.1202 15.9786 13.7243 16.2288 14.3542 16.2288C14.9841 16.2288 15.5882 15.9786 16.0336 15.5332C16.479 15.0878 16.7292 14.4837 16.7292 13.8538C16.7292 13.224 16.479 12.6199 16.0336 12.1745C15.5882 11.7291 14.9841 11.4788 14.3542 11.4788ZM11.1875 13.8538C11.1875 13.014 11.5212 12.2085 12.115 11.6147C12.7089 11.0208 13.5144 10.6872 14.3542 10.6872C15.1941 10.6872 15.9995 11.0208 16.5934 11.6147C17.1872 12.2085 17.5209 13.014 17.5209 13.8538C17.5209 14.6937 17.1872 15.4991 16.5934 16.093C15.9995 16.6869 15.1941 17.0205 14.3542 17.0205C13.5144 17.0205 12.7089 16.6869 12.115 16.093C11.5212 15.4991 11.1875 14.6937 11.1875 13.8538ZM15.6731 12.8809C15.71 12.9177 15.7392 12.9613 15.7592 13.0094C15.7791 13.0575 15.7894 13.1091 15.7894 13.1611C15.7894 13.2132 15.7791 13.2648 15.7592 13.3128C15.7392 13.3609 15.71 13.4046 15.6731 13.4414L14.0075 15.1063L13.0353 14.1341C12.9985 14.0973 12.9693 14.0537 12.9493 14.0057C12.9294 13.9576 12.9191 13.9061 12.9191 13.8541C12.9191 13.8021 12.9293 13.7506 12.9491 13.7025C12.969 13.6545 12.9981 13.6108 13.0349 13.574C13.1091 13.4997 13.2098 13.4579 13.3149 13.4578C13.3669 13.4578 13.4184 13.468 13.4665 13.4878C13.5145 13.5077 13.5582 13.5368 13.595 13.5736L14.0075 13.9868L15.1134 12.8809C15.1876 12.8067 15.2883 12.765 15.3933 12.765C15.4982 12.765 15.5989 12.8067 15.6731 12.8809Z" fill="white"/>
</svg>
