<svg width="24" height="24" viewBox="0 0 24 24" fill="none" xmlns="http://www.w3.org/2000/svg">
<path d="M3.27265 8.18124H5.45445V19.0903H3.27265V8.18124ZM10.9089 8.18124H13.0907V19.0903H10.9089V8.18124ZM18.5452 8.18124H20.727V19.0903H18.5452V8.18124ZM23.4543 5.99944H0.54541V3.81763L11.9998 0.544922L23.4543 3.81763V5.99944ZM0.54541 21.2721H23.4543V23.4539H0.54541V21.2721ZM2.18176 19.0903H21.8179V21.2721H2.18176V19.0903ZM2.18176 5.99944H21.8179V8.18124H2.18176V5.99944Z" fill="#616D7A"/>
<path d="M21.8179 8.72736C21.9626 8.72736 22.1013 8.66989 22.2036 8.5676C22.3059 8.46531 22.3634 8.32657 22.3634 8.1819V6.54555H23.4543C23.599 6.54555 23.7377 6.48808 23.84 6.38579C23.9423 6.2835 23.9997 6.14476 23.9997 6.0001V3.81829C23.9997 3.57502 23.8383 3.36066 23.6043 3.29357L12.1499 0.0208568C12.0518 -0.00695226 11.9479 -0.00695226 11.8499 0.0208568L0.39545 3.29357C0.281511 3.32625 0.181302 3.39512 0.109961 3.48979C0.0386208 3.58445 2.34475e-05 3.69976 0 3.81829V6.0001C0 6.14476 0.0574667 6.2835 0.159758 6.38579C0.26205 6.48808 0.400787 6.54555 0.545449 6.54555H1.63635V8.1819C1.63635 8.32657 1.69381 8.46531 1.7961 8.5676C1.8984 8.66989 2.03713 8.72736 2.18179 8.72736H2.72724V18.5455H2.18179C2.03713 18.5455 1.8984 18.603 1.7961 18.7052C1.69381 18.8075 1.63635 18.9463 1.63635 19.0909V20.7273H0.545449C0.400787 20.7273 0.26205 20.7848 0.159758 20.8871C0.0574667 20.9893 0 21.1281 0 21.2727V23.4545C0 23.5992 0.0574667 23.738 0.159758 23.8402C0.26205 23.9425 0.400787 24 0.545449 24H23.4543C23.599 24 23.7377 23.9425 23.84 23.8402C23.9423 23.738 23.9997 23.5992 23.9997 23.4545V21.2727C23.9997 21.1281 23.9423 20.9893 23.84 20.8871C23.7377 20.7848 23.599 20.7273 23.4543 20.7273H22.3634V19.0909C22.3634 18.9463 22.3059 18.8075 22.2036 18.7052C22.1013 18.603 21.9626 18.5455 21.8179 18.5455H21.2725V8.72736H21.8179ZM1.0909 4.22956L11.9999 1.11285L22.9088 4.22956V5.45465H1.0909V4.22956ZM21.2725 6.54555V7.63645H2.72724V6.54555H21.2725ZM13.6362 18.5455V8.72736H17.9998V18.5455H13.6362ZM5.99994 18.5455V8.72736H10.3635V18.5455H5.99994ZM11.4544 8.72736H12.5453V18.5455H11.4544V8.72736ZM3.81814 8.72736H4.90904V18.5455H3.81814V8.72736ZM22.9088 22.9091H1.0909V21.8182H22.9088V22.9091ZM2.72724 20.7273V19.6364H21.2725V20.7273H2.72724ZM20.1816 18.5455H19.0907V8.72736H20.1816V18.5455Z" />
<path d="M11.9999 4.36345C12.6024 4.36345 13.0908 3.87503 13.0908 3.27254C13.0908 2.67005 12.6024 2.18164 11.9999 2.18164C11.3974 2.18164 10.909 2.67005 10.909 3.27254C10.909 3.87503 11.3974 4.36345 11.9999 4.36345Z" />
<path d="M8.18174 4.36434C8.48298 4.36434 8.72719 4.12013 8.72719 3.81889C8.72719 3.51764 8.48298 3.27344 8.18174 3.27344C7.8805 3.27344 7.63629 3.51764 7.63629 3.81889C7.63629 4.12013 7.8805 4.36434 8.18174 4.36434Z" />
<path d="M15.818 4.36434C16.1192 4.36434 16.3634 4.12013 16.3634 3.81889C16.3634 3.51764 16.1192 3.27344 15.818 3.27344C15.5167 3.27344 15.2725 3.51764 15.2725 3.81889C15.2725 4.12013 15.5167 4.36434 15.818 4.36434Z" />
</svg>
