<svg width="24" height="24" viewBox="0 0 24 24" fill="none" xmlns="http://www.w3.org/2000/svg">
<path d="M23 8.328C22.9873 8.21776 22.9627 8.10916 22.9267 8.004V7.896C22.8679 7.77262 22.7895 7.6592 22.6944 7.56L15.3611 0.36C15.2601 0.266659 15.1446 0.189697 15.0189 0.132C14.9824 0.126912 14.9454 0.126912 14.9089 0.132C14.7847 0.0620895 14.6476 0.017213 14.5056 0H9.55556C8.5831 0 7.65046 0.379285 6.96283 1.05442C6.2752 1.72955 5.88889 2.64522 5.88889 3.6V4.8H4.66667C3.69421 4.8 2.76158 5.17929 2.07394 5.85442C1.38631 6.52955 1 7.44522 1 8.4V20.4C1 21.3548 1.38631 22.2705 2.07394 22.9456C2.76158 23.6207 3.69421 24 4.66667 24H14.4444C15.4169 24 16.3495 23.6207 17.0372 22.9456C17.7248 22.2705 18.1111 21.3548 18.1111 20.4V19.2H19.3333C20.3058 19.2 21.2384 18.8207 21.9261 18.1456C22.6137 17.4705 23 16.5548 23 15.6V8.4C23 8.4 23 8.4 23 8.328ZM15.6667 4.092L18.8322 7.2H16.8889C16.5647 7.2 16.2539 7.07357 16.0246 6.84853C15.7954 6.62348 15.6667 6.31826 15.6667 6V4.092ZM15.6667 20.4C15.6667 20.7183 15.5379 21.0235 15.3087 21.2485C15.0795 21.4736 14.7686 21.6 14.4444 21.6H4.66667C4.34251 21.6 4.03164 21.4736 3.80243 21.2485C3.57321 21.0235 3.44444 20.7183 3.44444 20.4V8.4C3.44444 8.08174 3.57321 7.77652 3.80243 7.55147C4.03164 7.32643 4.34251 7.2 4.66667 7.2H5.88889V15.6C5.88889 16.5548 6.2752 17.4705 6.96283 18.1456C7.65046 18.8207 8.5831 19.2 9.55556 19.2H15.6667V20.4ZM20.5556 15.6C20.5556 15.9183 20.4268 16.2235 20.1976 16.4485C19.9684 16.6736 19.6575 16.8 19.3333 16.8H9.55556C9.2314 16.8 8.92053 16.6736 8.69131 16.4485C8.4621 16.2235 8.33333 15.9183 8.33333 15.6V3.6C8.33333 3.28174 8.4621 2.97652 8.69131 2.75147C8.92053 2.52643 9.2314 2.4 9.55556 2.4H13.2222V6C13.2222 6.95478 13.6085 7.87045 14.2962 8.54559C14.9838 9.22072 15.9164 9.6 16.8889 9.6H20.5556V15.6Z" />
</svg>
