<svg width="24" height="24" viewBox="0 0 24 24" fill="none" xmlns="http://www.w3.org/2000/svg">
<path d="M16.8889 21.6H7.11111C6.13865 21.6 5.20602 21.2207 4.51839 20.5456C3.83075 19.8705 3.44444 18.9548 3.44444 18V6C3.44444 5.68174 3.31567 5.37652 3.08646 5.15147C2.85725 4.92643 2.54638 4.8 2.22222 4.8C1.89807 4.8 1.58719 4.92643 1.35798 5.15147C1.12877 5.37652 1 5.68174 1 6V18C1 19.5913 1.64385 21.1174 2.7899 22.2426C3.93596 23.3679 5.49034 24 7.11111 24H16.8889C17.213 24 17.5239 23.8736 17.7531 23.6485C17.9823 23.4235 18.1111 23.1183 18.1111 22.8C18.1111 22.4817 17.9823 22.1765 17.7531 21.9515C17.5239 21.7264 17.213 21.6 16.8889 21.6ZM23 8.328C22.9873 8.21776 22.9627 8.10916 22.9267 8.004V7.896C22.8679 7.77262 22.7895 7.6592 22.6944 7.56L15.3611 0.36C15.2601 0.266659 15.1446 0.189697 15.0189 0.132H14.9089L14.5178 0H9.55556C8.5831 0 7.65046 0.379285 6.96283 1.05442C6.2752 1.72955 5.88889 2.64522 5.88889 3.6V15.6C5.88889 16.5548 6.2752 17.4705 6.96283 18.1456C7.65046 18.8207 8.5831 19.2 9.55556 19.2H19.3333C20.3058 19.2 21.2384 18.8207 21.9261 18.1456C22.6137 17.4705 23 16.5548 23 15.6V8.4C23 8.4 23 8.4 23 8.328ZM15.6667 4.092L18.8322 7.2H16.8889C16.5647 7.2 16.2539 7.07357 16.0246 6.84853C15.7954 6.62348 15.6667 6.31826 15.6667 6V4.092ZM20.5556 15.6C20.5556 15.9183 20.4268 16.2235 20.1976 16.4485C19.9684 16.6736 19.6575 16.8 19.3333 16.8H9.55556C9.2314 16.8 8.92053 16.6736 8.69131 16.4485C8.4621 16.2235 8.33333 15.9183 8.33333 15.6V3.6C8.33333 3.28174 8.4621 2.97652 8.69131 2.75147C8.92053 2.52643 9.2314 2.4 9.55556 2.4H13.2222V6C13.2222 6.95478 13.6085 7.87045 14.2962 8.54559C14.9838 9.22072 15.9164 9.6 16.8889 9.6H20.5556V15.6Z"/>
</svg>
