<svg width="24" height="24" viewBox="0 0 24 24" fill="none" xmlns="http://www.w3.org/2000/svg">
<path d="M22.9101 17.7841L20.4108 15.234C19.8731 14.7248 19.195 14.3875 18.4634 14.2653C17.7319 14.1431 16.9804 14.2417 16.3055 14.5483L15.2188 13.4657C16.4994 11.7611 17.0842 9.63646 16.8555 7.51953C16.6269 5.4026 15.6018 3.45056 13.9865 2.05636C12.3713 0.662156 10.2859 -0.070678 8.1501 0.00537894C6.01431 0.0814359 3.98674 0.960736 2.47554 2.46627C0.964348 3.9718 0.0817421 5.99178 0.00539916 8.11957C-0.0709437 10.2474 0.664645 12.325 2.06409 13.9341C3.46353 15.5433 5.42291 16.5646 7.5478 16.7924C9.67269 17.0202 11.8053 16.4376 13.5163 15.1618L14.5909 16.2324C14.2469 16.9056 14.1236 17.6693 14.2385 18.416C14.3533 19.1627 14.7004 19.8547 15.2309 20.3945L17.7906 22.9446C18.4698 23.6204 19.3905 24 20.3504 24C21.3103 24 22.231 23.6204 22.9101 22.9446C23.2551 22.6085 23.5293 22.2072 23.7164 21.7641C23.9036 21.321 24 20.8451 24 20.3644C24 19.8837 23.9036 19.4078 23.7164 18.9647C23.5293 18.5216 23.2551 18.1202 22.9101 17.7841ZM12.6711 12.6838C11.8262 13.5234 10.7505 14.0948 9.57979 14.3256C8.40911 14.5564 7.19603 14.4364 6.09377 13.9808C4.99151 13.5251 4.04954 12.7542 3.38684 11.7654C2.72415 10.7767 2.37046 9.61443 2.37046 8.42552C2.37046 7.2366 2.72415 6.07435 3.38684 5.0856C4.04954 4.09684 4.99151 3.32593 6.09377 2.87026C7.19603 2.41459 8.40911 2.29459 9.57979 2.52543C10.7505 2.75627 11.8262 3.32759 12.6711 4.16722C13.2333 4.72592 13.6794 5.38963 13.9838 6.12034C14.2881 6.85105 14.4448 7.63439 14.4448 8.42552C14.4448 9.21664 14.2881 9.99998 13.9838 10.7307C13.6794 11.4614 13.2333 12.1251 12.6711 12.6838ZM21.2077 21.1884C21.0954 21.3011 20.9619 21.3906 20.8147 21.4517C20.6676 21.5127 20.5098 21.5442 20.3504 21.5442C20.191 21.5442 20.0332 21.5127 19.886 21.4517C19.7389 21.3906 19.6054 21.3011 19.4931 21.1884L16.9334 18.6382C16.8202 18.5264 16.7304 18.3933 16.6691 18.2468C16.6078 18.1002 16.5762 17.9429 16.5762 17.7841C16.5762 17.6253 16.6078 17.4681 16.6691 17.3215C16.7304 17.1749 16.8202 17.0419 16.9334 16.9301C17.0456 16.8173 17.1791 16.7278 17.3263 16.6668C17.4734 16.6057 17.6312 16.5743 17.7906 16.5743C17.95 16.5743 18.1078 16.6057 18.255 16.6668C18.4021 16.7278 18.5357 16.8173 18.6479 16.9301L21.2077 19.4802C21.3208 19.5921 21.4107 19.7251 21.472 19.8717C21.5333 20.0183 21.5648 20.1755 21.5648 20.3343C21.5648 20.4931 21.5333 20.6503 21.472 20.7969C21.4107 20.9435 21.3208 21.0765 21.2077 21.1884Z" />
</svg>
