<svg width="16" height="16" viewBox="0 0 16 16" fill="none" xmlns="http://www.w3.org/2000/svg">
<path d="M7.25028 5.30723C7.08872 5.49072 7.00001 5.74463 7.00001 6C7.00001 6.27614 6.77615 6.5 6.50001 6.5C6.22387 6.5 6.00001 6.27614 6.00001 6C6.00001 5.52689 6.1613 5.0308 6.49974 4.64641C6.84684 4.25219 7.3597 4 8.00001 4C8.64033 4 9.15318 4.25219 9.50028 4.64641C9.83872 5.0308 10 5.52689 10 6C10 6.48947 9.88392 6.86964 9.69756 7.18921C9.53467 7.46855 9.32252 7.68963 9.15279 7.86652L9.11154 7.90956C8.92473 8.1051 8.78214 8.26391 8.67734 8.46406C8.57734 8.65505 8.50001 8.90847 8.50001 9.29292C8.50001 9.56906 8.27615 9.79292 8.00001 9.79292C7.72387 9.79292 7.50001 9.56906 7.50001 9.29292C7.50001 8.76109 7.61018 8.3464 7.79143 8.00022C7.96788 7.66319 8.20029 7.41576 8.38848 7.21878L8.41064 7.19559C8.59847 6.99908 8.73276 6.85858 8.83371 6.68547C8.92861 6.52273 9.00001 6.31707 9.00001 6C9.00001 5.74463 8.9113 5.49072 8.74974 5.30723C8.59684 5.13358 8.3597 5 8.00001 5C7.64033 5 7.40318 5.13358 7.25028 5.30723ZM7.99991 12.2122C8.38628 12.2122 8.69951 11.899 8.69951 11.5126C8.69951 11.1262 8.38628 10.813 7.99991 10.813C7.61353 10.813 7.3003 11.1262 7.3003 11.5126C7.3003 11.899 7.61353 12.2122 7.99991 12.2122ZM1.05969e-05 8C1.05969e-05 3.58172 3.58173 0 8.00001 0C12.4183 0 16 3.58172 16 8C16 12.4183 12.4183 16 8.00001 16C6.65078 16 5.37829 15.6656 4.26225 15.0748L0.621278 15.9851C0.450891 16.0277 0.270647 15.9777 0.146457 15.8536C0.022267 15.7294 -0.0276575 15.5491 0.0149394 15.3787L0.925182 11.7378C0.334417 10.6217 1.05969e-05 9.34923 1.05969e-05 8ZM8.00001 1C4.13402 1 1.00001 4.13401 1.00001 8C1.00001 9.24504 1.32462 10.4128 1.89345 11.4247C1.95602 11.536 1.97363 11.6671 1.94266 11.791L1.18719 14.8128L4.20904 14.0574C4.33294 14.0264 4.46399 14.044 4.57531 14.1066C5.58726 14.6754 6.75497 15 8.00001 15C11.866 15 15 11.866 15 8C15 4.13401 11.866 1 8.00001 1Z" fill="white"/>
</svg>
