<svg width="14" height="14" viewBox="0 0 14 14" fill="none" xmlns="http://www.w3.org/2000/svg">
<path d="M3.1046 0.236157C3.47726 -0.078719 4.02274 -0.078719 4.3954 0.236157L6.9681 2.40994C6.97888 2.41904 6.98952 2.42829 7 2.43767C7.01049 2.42829 7.02112 2.41904 7.0319 2.40994L9.6046 0.236157C9.97726 -0.078719 10.5227 -0.078719 10.8954 0.236157L13.4681 2.40994C13.8054 2.69494 14 3.1141 14 3.5557V12.5046C14 13.333 13.3284 14.0046 12.5 14.0046H1.5C0.671573 14.0046 0 13.333 0 12.5046V3.5557C0 3.1141 0.194586 2.69494 0.531897 2.40994L3.1046 0.236157ZM7.5 9.99971H9.5C9.77614 9.99971 10 10.2236 10 10.4997V13.0046H12.5C12.7761 13.0046 13 12.7807 13 12.5046V3.5557C13 3.4085 12.9351 3.26878 12.8227 3.17378L10.25 1L7.6773 3.17378C7.56486 3.26878 7.5 3.4085 7.5 3.5557L7.5 9.99971ZM6.5 9.99971V3.5557C6.5 3.4085 6.43514 3.26878 6.3227 3.17378L3.75 1L1.1773 3.17378C1.06486 3.26878 1 3.4085 1 3.5557V12.5046C1 12.7807 1.22386 13.0046 1.5 13.0046H4V10.4997C4 10.2236 4.22386 9.99971 4.5 9.99971H6.5ZM5 13.0046H6.5V10.9997H5V13.0046ZM7.5 10.9997V13.0046H9V10.9997H7.5ZM3.75 5.49971C4.16421 5.49971 4.5 5.16393 4.5 4.74971C4.5 4.3355 4.16421 3.99971 3.75 3.99971C3.33579 3.99971 3 4.3355 3 4.74971C3 5.16393 3.33579 5.49971 3.75 5.49971ZM4.5 7.74971C4.5 8.16393 4.16421 8.49971 3.75 8.49971C3.33579 8.49971 3 8.16393 3 7.74971C3 7.3355 3.33579 6.99971 3.75 6.99971C4.16421 6.99971 4.5 7.3355 4.5 7.74971ZM10.25 5.49971C10.6642 5.49971 11 5.16393 11 4.74971C11 4.3355 10.6642 3.99971 10.25 3.99971C9.83579 3.99971 9.5 4.3355 9.5 4.74971C9.5 5.16393 9.83579 5.49971 10.25 5.49971ZM11 7.74971C11 8.16393 10.6642 8.49971 10.25 8.49971C9.83579 8.49971 9.5 8.16393 9.5 7.74971C9.5 7.3355 9.83579 6.99971 10.25 6.99971C10.6642 6.99971 11 7.3355 11 7.74971Z" fill="white"/>
</svg>
