<svg width="10" height="13" viewBox="0 0 10 13" fill="none" xmlns="http://www.w3.org/2000/svg">
<path d="M8.5 7C9.32843 7 10 7.67157 10 8.5V9C10 10.9714 8.14049 13 5 13C1.85951 13 0 10.9714 0 9V8.5C0 7.67157 0.671573 7 1.5 7H8.5ZM8.5 8H1.5C1.22386 8 1 8.22386 1 8.5V9C1 10.4376 2.43216 12 5 12C7.56784 12 9 10.4376 9 9V8.5C9 8.22386 8.77614 8 8.5 8ZM5 0.5C6.51878 0.5 7.75 1.73122 7.75 3.25C7.75 4.76878 6.51878 6 5 6C3.48122 6 2.25 4.76878 2.25 3.25C2.25 1.73122 3.48122 0.5 5 0.5ZM5 1.5C4.0335 1.5 3.25 2.2835 3.25 3.25C3.25 4.2165 4.0335 5 5 5C5.9665 5 6.75 4.2165 6.75 3.25C6.75 2.2835 5.9665 1.5 5 1.5Z" fill="white"/>
</svg>
