<svg width="24" height="24" viewBox="0 0 24 24" fill="none" xmlns="http://www.w3.org/2000/svg">
<path d="M11.5 10.5482C11.9697 10.5482 12.4289 10.4074 12.8195 10.1434C13.21 9.87946 13.5145 9.50431 13.6942 9.06538C13.874 8.62645 13.921 8.14347 13.8294 7.67751C13.7377 7.21155 13.5115 6.78353 13.1794 6.44759C12.8472 6.11165 12.424 5.88288 11.9633 5.79019C11.5026 5.6975 11.0251 5.74507 10.5911 5.92688C10.1572 6.10869 9.78623 6.41658 9.52526 6.8116C9.26429 7.20662 9.125 7.67105 9.125 8.14614C9.125 8.78321 9.37522 9.3942 9.82062 9.84468C10.266 10.2952 10.8701 10.5482 11.5 10.5482ZM10.6569 18.8475C10.7673 18.9601 10.8986 19.0494 11.0433 19.1104C11.188 19.1714 11.3432 19.2028 11.5 19.2028C11.6568 19.2028 11.812 19.1714 11.9567 19.1104C12.1014 19.0494 12.2327 18.9601 12.3431 18.8475L17.2 13.9232C18.3281 12.7828 19.0964 11.3297 19.4079 9.74769C19.7193 8.16563 19.5599 6.52569 18.9498 5.03528C18.3396 3.54488 17.3061 2.27097 15.9801 1.37468C14.654 0.478398 13.0949 0 11.5 0C9.90509 0 8.34599 0.478398 7.01993 1.37468C5.69386 2.27097 4.6604 3.54488 4.05024 5.03528C3.44009 6.52569 3.28066 8.16563 3.59211 9.74769C3.90357 11.3297 4.67193 12.7828 5.8 13.9232L10.6569 18.8475ZM5.83562 7.59365C5.91676 6.73732 6.18596 5.91013 6.62356 5.17247C7.06116 4.43481 7.65612 3.80531 8.365 3.32992C9.29624 2.7115 10.386 2.38201 11.5 2.38201C12.614 2.38201 13.7038 2.7115 14.635 3.32992C15.3391 3.80368 15.9307 4.42937 16.3672 5.16199C16.8037 5.89461 17.0743 6.71596 17.1595 7.56697C17.2446 8.41799 17.1423 9.27751 16.8598 10.0837C16.5773 10.89 16.1216 11.6229 15.5256 12.2297L11.5 16.3013L7.47437 12.2297C6.87768 11.6287 6.42098 10.9008 6.13749 10.0988C5.85401 9.29683 5.75089 8.44102 5.83562 7.59365ZM19.8125 21.5979H3.1875C2.87256 21.5979 2.57051 21.7244 2.34781 21.9497C2.12511 22.1749 2 22.4804 2 22.799C2 23.1175 2.12511 23.423 2.34781 23.6482C2.57051 23.8735 2.87256 24 3.1875 24H19.8125C20.1274 24 20.4295 23.8735 20.6522 23.6482C20.8749 23.423 21 23.1175 21 22.799C21 22.4804 20.8749 22.1749 20.6522 21.9497C20.4295 21.7244 20.1274 21.5979 19.8125 21.5979Z" />
</svg>
