<svg width="24" height="24" viewBox="0 0 24 24" fill="none" xmlns="http://www.w3.org/2000/svg">
<path fill-rule="evenodd" clip-rule="evenodd" d="M4 24H20C22.2 24 24 22.2 24 20V4C24 1.8 22.2 0 20 0H4C1.8 0 0 1.8 0 4V20C0 22.2 1.8 24 4 24ZM2 4C2 2.9 2.9 2 4 2H20C21.1 2 22 2.9 22 4V20C22 21.1 21.1 22 20 22H4C2.9 22 2 21.1 2 20V4ZM8.5 16.9002C8.7 17.0002 8.8 17.0002 9 17.0002C9.2 17.0002 9.3 17.0002 9.5 16.9002L16.5 12.9002C16.8 12.7002 17 12.4002 17 12.0002C17 11.6002 16.8 11.3002 16.5 11.1002L9.5 7.1002C9.2 6.9002 8.8 6.9002 8.5 7.1002C8.2 7.3002 8 7.6002 8 8.0002V16.0002C8 16.4002 8.2 16.7002 8.5 16.9002ZM10 14.3002V9.7002L14 12.0002L10 14.3002Z" />
</svg>
