<svg width="24" height="24" viewBox="0 0 24 24" fill="none" xmlns="http://www.w3.org/2000/svg">
<path fill-rule="evenodd" clip-rule="evenodd" d="M11.8837 7.25645C11.1131 7.25645 10.4884 7.88116 10.4884 8.6518C10.4884 9.42243 11.1131 10.0471 11.8837 10.0471C12.6544 10.0471 13.2791 9.42243 13.2791 8.6518C13.2791 7.88116 12.6544 7.25645 11.8837 7.25645ZM8.81397 8.6518C8.81397 6.95642 10.1883 5.58203 11.8837 5.58203C13.5791 5.58203 14.9535 6.95642 14.9535 8.6518C14.9535 10.3472 13.5791 11.7216 11.8837 11.7216C10.1883 11.7216 8.81397 10.3472 8.81397 8.6518ZM9.10083 14.5196C8.38181 14.8792 8.25583 15.2209 8.25583 15.3495C8.25583 16.0243 8.2988 16.1277 8.46767 16.25C8.60391 16.3485 8.88441 16.4807 9.4506 16.5826C10.0104 16.6833 10.7929 16.7448 11.8837 16.7448C12.9746 16.7448 13.7571 16.6833 14.3169 16.5826C14.8831 16.4807 15.1636 16.3485 15.2998 16.25C15.4687 16.1277 15.5116 16.0243 15.5116 15.3495C15.5116 15.2209 15.3856 14.8792 14.6666 14.5196C13.9976 14.1852 13.015 13.9541 11.8837 13.9541C10.7525 13.9541 9.76984 14.1852 9.10083 14.5196ZM8.35201 13.022C9.29912 12.5484 10.5489 12.2797 11.8837 12.2797C13.2186 12.2797 14.4684 12.5484 15.4154 13.022C16.3125 13.4706 17.1861 14.245 17.1861 15.3495C17.1861 15.372 17.1862 15.3952 17.1862 15.4192C17.188 15.9889 17.1908 16.9482 16.2817 17.6064C15.8597 17.9117 15.303 18.1065 14.6134 18.2306C13.9174 18.3558 13.0255 18.4192 11.8837 18.4192C10.742 18.4192 9.8501 18.3558 9.15409 18.2306C8.46447 18.1065 7.90776 17.9117 7.48586 17.6064C6.57668 16.9482 6.57956 15.9889 6.58127 15.4192C6.58135 15.3952 6.58142 15.372 6.58142 15.3495C6.58142 14.245 7.45499 13.4706 8.35201 13.022Z" />
<path fill-rule="evenodd" clip-rule="evenodd" d="M11.8837 1.67442C11.1495 1.67442 10.4271 1.91067 8.62488 2.52759L7.98545 2.74646C6.29698 3.32444 5.0656 3.74629 4.20103 4.09751C3.76949 4.27283 3.45682 4.41974 3.23735 4.5472C3.12899 4.61012 3.05433 4.66205 3.00447 4.70258C2.9622 4.73694 2.94608 4.75641 2.94377 4.75924C2.94161 4.76275 2.92774 4.78594 2.9082 4.84079C2.88589 4.90342 2.86116 4.99322 2.83707 5.11821C2.78832 5.37119 2.75138 5.71871 2.72586 6.18745C2.67473 7.12645 2.67442 8.43721 2.67442 10.2326C2.67442 10.695 2.29958 11.0698 1.83721 11.0698C1.37484 11.0698 1 10.695 1 10.2326V10.2027C1 8.44314 1 7.0866 1.05392 6.0964C1.08106 5.59774 1.12314 5.16342 1.1929 4.80136C1.26001 4.45311 1.36681 4.09134 1.57335 3.79707C1.78231 3.49936 2.08987 3.27728 2.39644 3.09925C2.71502 2.91424 3.11064 2.73316 3.57082 2.54622C4.48436 2.17509 5.76052 1.73827 7.4141 1.17224L8.0826 0.943412C8.13098 0.926847 8.1788 0.910471 8.22611 0.894274C9.83792 0.342229 10.8372 0 11.8837 0C12.9302 0 13.9295 0.342229 15.5413 0.894274C15.5887 0.910471 15.6364 0.926847 15.6849 0.943412L16.3533 1.17224C18.007 1.73827 19.2831 2.17509 20.1967 2.54622C20.6568 2.73316 21.0524 2.91424 21.371 3.09925C21.6776 3.27728 21.9852 3.49936 22.1941 3.79707C22.4006 4.09134 22.5075 4.45311 22.5746 4.80136C22.6443 5.16342 22.6864 5.59774 22.7135 6.0964C22.7674 7.08659 22.7674 8.4431 22.7674 10.2026V11.9904C22.7674 14.99 21.7602 17.3264 20.3552 19.1089C20.069 19.472 19.5425 19.5344 19.1794 19.2482C18.8163 18.9619 18.754 18.4356 19.0402 18.0724C20.2321 16.5603 21.093 14.5833 21.093 11.9904V10.2326C21.093 8.43721 21.0927 7.12645 21.0416 6.18745C21.0161 5.71871 20.9792 5.37119 20.9304 5.11821C20.9063 4.99322 20.8816 4.90342 20.8593 4.84079C20.8397 4.7859 20.8258 4.76272 20.8237 4.75923C20.8213 4.75638 20.8052 4.73692 20.7629 4.70258C20.7132 4.66205 20.6385 4.61012 20.5301 4.5472C20.3106 4.41974 19.998 4.27283 19.5664 4.09751C18.7018 3.74629 17.4705 3.32444 15.782 2.74646L15.1426 2.52759C13.3404 1.91067 12.6179 1.67442 11.8837 1.67442ZM1.8887 13.4115C2.34215 13.3211 2.78305 13.6154 2.87351 14.0688C3.74875 18.4566 7.36067 20.7704 9.87308 21.8679C10.2878 22.0491 10.5272 22.1516 10.7938 22.2198C11.0484 22.2849 11.3591 22.3256 11.8837 22.3256C12.4084 22.3256 12.719 22.2849 12.9737 22.2198C13.2402 22.1516 13.4797 22.0491 13.8944 21.8679C14.5093 21.5992 15.2014 21.2525 15.9069 20.8139C16.2996 20.5699 16.8158 20.6903 17.0599 21.0831C17.3039 21.4758 17.1835 21.9919 16.7908 22.2361C16.0058 22.724 15.2404 23.1071 14.5647 23.4023L14.5344 23.4155C14.1551 23.5813 13.7986 23.737 13.3889 23.8419C12.9564 23.9527 12.4969 24 11.8837 24C11.2705 24 10.8111 23.9527 10.3785 23.8419C9.96886 23.737 9.61235 23.5813 9.23304 23.4155L9.20279 23.4023C6.53086 22.2352 2.27043 19.605 1.23144 14.3963C1.14099 13.9429 1.43525 13.502 1.8887 13.4115Z" />
</svg>
