<svg width="16" height="16" viewBox="0 0 16 16" fill="none" xmlns="http://www.w3.org/2000/svg">
<path d="M10.4667 2.24667C10.2828 2.24667 10.1275 2.18306 10.0008 2.05583C9.87417 1.92861 9.81083 1.77306 9.81083 1.58917C9.81083 1.40528 9.87444 1.24972 10.0017 1.1225C10.1289 0.995278 10.2844 0.931944 10.4683 0.9325C10.6522 0.933056 10.8078 0.996944 10.935 1.12417C11.0622 1.25139 11.1256 1.40694 11.125 1.59083C11.1244 1.77472 11.0608 1.93028 10.9342 2.0575C10.8075 2.18472 10.6519 2.24778 10.4675 2.24667M10.4192 15.0675C10.2347 15.0675 10.0792 15.0036 9.9525 14.8758C9.82583 14.7492 9.7625 14.5936 9.7625 14.4092C9.7625 14.2253 9.82639 14.0697 9.95417 13.9425C10.0808 13.8164 10.2364 13.7533 10.4208 13.7533C10.6053 13.7533 10.7608 13.8169 10.8875 13.9442C11.0142 14.0714 11.0772 14.2269 11.0767 14.4108C11.0761 14.5947 11.0125 14.7503 10.8858 14.8775C10.7592 15.0047 10.6036 15.0681 10.4192 15.0675ZM13.7525 4.97083C13.5681 4.97083 13.4125 4.90722 13.2858 4.78C13.1597 4.65278 13.0967 4.49722 13.0967 4.31333C13.0967 4.12944 13.16 3.97389 13.2867 3.84667C13.4133 3.71944 13.5692 3.65611 13.7542 3.65667C13.9392 3.65722 14.0947 3.72111 14.2208 3.84833C14.3469 3.975 14.41 4.13056 14.41 4.315C14.41 4.49944 14.3464 4.655 14.2192 4.78167C14.0919 4.90833 13.9364 4.97139 13.7525 4.97083ZM13.7042 12.3908C13.5203 12.3908 13.3647 12.3272 13.2375 12.2C13.1114 12.0728 13.0483 11.9172 13.0483 11.7333C13.0483 11.5494 13.1119 11.3939 13.2392 11.2667C13.3664 11.1394 13.5219 11.0761 13.7058 11.0767C13.8897 11.0772 14.0453 11.1411 14.1725 11.2683C14.2997 11.3956 14.3631 11.5511 14.3625 11.735C14.3619 11.9189 14.2981 12.0744 14.1708 12.2017C14.0442 12.3278 13.8886 12.3908 13.7042 12.3908ZM14.8425 8.6575C14.6581 8.6575 14.5025 8.59361 14.3758 8.46583C14.2492 8.33917 14.1858 8.18361 14.1858 7.99917C14.1858 7.81472 14.2494 7.65917 14.3767 7.5325C14.5039 7.40583 14.6594 7.34278 14.8433 7.34333C15.0272 7.34389 15.1828 7.4075 15.31 7.53417C15.4372 7.66083 15.5006 7.81639 15.5 8.00083C15.4994 8.18528 15.4358 8.34083 15.3092 8.4675C15.1825 8.59417 15.0269 8.65806 14.8425 8.6575ZM8 15.5C6.96444 15.5 5.99028 15.3033 5.0775 14.91C4.16472 14.5161 3.37056 13.9817 2.695 13.3067C2.01944 12.6317 1.48472 11.8383 1.09083 10.9267C0.696945 10.015 0.5 9.04028 0.5 8.0025C0.5 6.96472 0.696945 5.98972 1.09083 5.0775C1.48472 4.16472 2.01917 3.37056 2.69417 2.695C3.36917 2.01944 4.16278 1.48472 5.075 1.09083C5.98722 0.696945 6.96222 0.5 8 0.5V1.33333C6.13889 1.33333 4.5625 1.97917 3.27083 3.27083C1.97917 4.5625 1.33333 6.13889 1.33333 8C1.33333 9.86111 1.97917 11.4375 3.27083 12.7292C4.5625 14.0208 6.13889 14.6667 8 14.6667V15.5ZM10.75 11.3233L7.58333 8.15667V4.25H8.41667V7.84333L11.3242 10.75L10.75 11.3233Z" fill="white"/>
</svg>
