<svg width="16" height="14" viewBox="0 0 16 14" fill="none" xmlns="http://www.w3.org/2000/svg">
<path d="M1.84667 13.6663C1.46278 13.6663 1.1425 13.538 0.885833 13.2813C0.629167 13.0247 0.500556 12.7041 0.5 12.3197V1.67967C0.5 1.29579 0.628611 0.975508 0.885833 0.718841C1.14306 0.462174 1.46306 0.333563 1.84583 0.333008H14.1542C14.5375 0.333008 14.8575 0.461619 15.1142 0.718841C15.3708 0.976063 15.4994 1.29634 15.5 1.67967V12.3205C15.5 12.7038 15.3714 13.0241 15.1142 13.2813C14.8569 13.5386 14.5369 13.6669 14.1542 13.6663H1.84667ZM1.84667 12.833H14.1542C14.2819 12.833 14.3994 12.7797 14.5067 12.673C14.6139 12.5663 14.6672 12.4486 14.6667 12.3197V1.67967C14.6667 1.55134 14.6133 1.43356 14.5067 1.32634C14.4 1.21912 14.2825 1.16579 14.1542 1.16634H1.84583C1.71806 1.16634 1.60056 1.21967 1.49333 1.32634C1.38611 1.43301 1.33278 1.55079 1.33333 1.67967V12.3205C1.33333 12.4483 1.38667 12.5658 1.49333 12.673C1.6 12.7802 1.7175 12.8336 1.84583 12.833M5.5 10.7497C5.61889 10.7497 5.71806 10.71 5.7975 10.6305C5.87694 10.5511 5.91667 10.4519 5.91667 10.333C5.91667 10.2141 5.87694 10.115 5.7975 10.0355C5.71806 9.95606 5.61889 9.91634 5.5 9.91634H3C2.88167 9.91634 2.7825 9.95606 2.7025 10.0355C2.6225 10.115 2.58278 10.2141 2.58333 10.333C2.58389 10.4519 2.62361 10.5511 2.7025 10.6305C2.78139 10.71 2.88056 10.7497 3 10.7497H5.5ZM10.125 7.73884L9.2325 6.84551C9.15139 6.7644 9.05306 6.72217 8.9375 6.71884C8.82194 6.71551 8.72361 6.7594 8.6425 6.85051C8.56472 6.93162 8.52778 7.02995 8.53167 7.14551C8.53555 7.26106 8.57806 7.3594 8.65917 7.44051L9.65417 8.43551C9.78861 8.56995 9.94556 8.63717 10.125 8.63717C10.3044 8.63717 10.4617 8.56995 10.5967 8.43551L13.3625 5.66884C13.4436 5.58828 13.4869 5.49273 13.4925 5.38217C13.4975 5.27217 13.4542 5.17134 13.3625 5.07967C13.2703 4.98801 13.1711 4.94217 13.065 4.94217C12.9589 4.94217 12.8597 4.98801 12.7675 5.07967L10.125 7.73884ZM5.5 7.41634C5.61889 7.41634 5.71806 7.37662 5.7975 7.29717C5.87694 7.21773 5.91667 7.11856 5.91667 6.99967C5.91667 6.88078 5.87694 6.78162 5.7975 6.70217C5.71806 6.62273 5.61889 6.58301 5.5 6.58301H3C2.88167 6.58301 2.7825 6.62273 2.7025 6.70217C2.6225 6.78162 2.58278 6.88078 2.58333 6.99967C2.58389 7.11856 2.62361 7.21773 2.7025 7.29717C2.78139 7.37662 2.88056 7.41634 3 7.41634H5.5ZM5.5 4.08301C5.61889 4.08301 5.71806 4.04329 5.7975 3.96384C5.87694 3.8844 5.91667 3.78523 5.91667 3.66634C5.91667 3.54745 5.87694 3.44829 5.7975 3.36884C5.71806 3.2894 5.61889 3.24967 5.5 3.24967H3C2.88167 3.24967 2.7825 3.2894 2.7025 3.36884C2.6225 3.44829 2.58278 3.54745 2.58333 3.66634C2.58389 3.78523 2.62361 3.8844 2.7025 3.96384C2.78139 4.04329 2.88056 4.08301 3 4.08301H5.5Z" fill="white"/>
</svg>
