<svg width="18" height="18" viewBox="0 0 18 18" fill="none" xmlns="http://www.w3.org/2000/svg">
<g clip-path="url(#clip0_1301_8325)">
<path d="M10.8602 1.80543C10.7731 1.42958 10.5561 1.09658 10.2474 0.865186C9.93866 0.633791 9.55814 0.518873 9.17296 0.540712C8.78777 0.562551 8.42268 0.719743 8.1421 0.98455C7.86153 1.24936 7.68351 1.60476 7.63945 1.98804C7.59539 2.37132 7.68813 2.75784 7.9013 3.0794C8.11448 3.40097 8.43438 3.6369 8.80456 3.74556C9.17475 3.85423 9.57142 3.82865 9.92458 3.67334C10.2777 3.51802 10.5647 3.24296 10.7348 2.89668C11.7703 3.13248 12.733 3.61665 13.5397 4.30743C14.3464 4.9982 14.9729 5.87484 15.3653 6.86174L16.3637 6.46911C15.9016 5.29855 15.1573 4.26031 14.1972 3.44669C13.2371 2.63307 12.0908 2.06928 10.8602 1.80543ZM9.27286 2.7268C9.19977 2.72915 9.12695 2.71678 9.05874 2.69043C8.99052 2.66408 8.9283 2.62429 8.87577 2.57342C8.82324 2.52255 8.78147 2.46163 8.75294 2.3943C8.72441 2.32697 8.70972 2.25458 8.70972 2.18146C8.70972 2.10833 8.72441 2.03595 8.75294 1.96862C8.78147 1.90128 8.82324 1.84037 8.87577 1.7895C8.9283 1.73863 8.99052 1.69883 9.05874 1.67248C9.12695 1.64613 9.19977 1.63377 9.27286 1.63611C9.41757 1.63611 9.55635 1.6936 9.65867 1.79592C9.761 1.89825 9.81848 2.03703 9.81848 2.18174C9.81848 2.32645 9.761 2.46523 9.65867 2.56755C9.55635 2.66988 9.41757 2.7268 9.27286 2.7268ZM6.87267 3.18018L6.46936 2.1823C5.29879 2.64448 4.26055 3.38872 3.44693 4.34885C2.63331 5.30898 2.06952 6.45527 1.80567 7.6858C1.42983 7.7729 1.09683 7.98995 0.86543 8.29866C0.634035 8.60737 0.519117 8.98789 0.540956 9.37308C0.562795 9.75826 0.719987 10.1234 0.984794 10.4039C1.2496 10.6845 1.605 10.8625 1.98828 10.9066C2.37156 10.9506 2.75809 10.8579 3.07965 10.6447C3.40121 10.4316 3.63714 10.1117 3.74581 9.74147C3.85448 9.37129 3.8289 8.97461 3.67358 8.62145C3.51827 8.26829 3.2432 7.98134 2.89692 7.81124C3.1337 6.77448 3.61944 5.811 4.31216 5.0041C5.00488 4.19721 5.88371 3.57119 6.87267 3.18018ZM2.18142 9.8188C2.10977 9.8188 2.03882 9.80469 1.97262 9.77727C1.90642 9.74985 1.84627 9.70966 1.79561 9.65899C1.74494 9.60833 1.70475 9.54818 1.67733 9.48198C1.64991 9.41578 1.6358 9.34483 1.6358 9.27318C1.6358 9.20152 1.64991 9.13057 1.67733 9.06437C1.70475 8.99818 1.74494 8.93803 1.79561 8.88736C1.84627 8.83669 1.90642 8.7965 1.97262 8.76908C2.03882 8.74166 2.10977 8.72755 2.18142 8.72755C2.32613 8.72755 2.46491 8.78504 2.56724 8.88736C2.66956 8.98969 2.72705 9.12847 2.72705 9.27318C2.72705 9.41788 2.66956 9.55667 2.56724 9.65899C2.46491 9.76132 2.32613 9.8188 2.18142 9.8188ZM9.27286 14.7277C8.96856 14.7287 8.67056 14.8145 8.41232 14.9755C8.15407 15.1365 7.94581 15.3662 7.81092 15.639C6.77523 15.4032 5.81244 14.919 5.00563 14.2281C4.19882 13.5372 3.57221 12.6604 3.17986 11.6734L2.18198 12.0767C2.64567 13.2492 3.3924 14.2887 4.35554 15.1025C5.31869 15.9163 6.4683 16.479 7.7018 16.7404C7.77265 17.0407 7.92694 17.3148 8.14687 17.5312C8.3668 17.7476 8.64342 17.8975 8.94483 17.9635C9.24624 18.0295 9.56016 18.0089 9.8504 17.9042C10.1406 17.7995 10.3954 17.6149 10.5852 17.3717C10.7751 17.1285 10.8923 16.8365 10.9235 16.5296C10.9546 16.2226 10.8983 15.9131 10.7611 15.6367C10.6239 15.3603 10.4114 15.1284 10.1481 14.9675C9.88479 14.8067 9.58138 14.7236 9.27286 14.7277ZM9.27286 16.9097C9.12815 16.9097 8.98937 16.8522 8.88704 16.7499C8.78472 16.6475 8.72723 16.5088 8.72723 16.3641C8.72723 16.2193 8.78472 16.0806 8.88704 15.9782C8.98937 15.8759 9.12815 15.8184 9.27286 15.8184C9.41757 15.8184 9.55635 15.8759 9.65867 15.9782C9.761 16.0806 9.81848 16.2193 9.81848 16.3641C9.81848 16.5088 9.761 16.6475 9.65867 16.7499C9.55635 16.8522 9.41757 16.9097 9.27286 16.9097ZM18 9.27261C18.001 8.98056 17.9239 8.69355 17.7766 8.44137C17.6292 8.18919 17.4171 7.98101 17.1622 7.83844C16.9073 7.69587 16.6189 7.62409 16.327 7.63055C16.035 7.63701 15.75 7.72148 15.5017 7.87519C15.2534 8.0289 15.0507 8.24626 14.9147 8.50471C14.7786 8.76316 14.7142 9.0533 14.7282 9.34503C14.7421 9.63676 14.8338 9.91945 14.9938 10.1638C15.1538 10.4081 15.3763 10.6052 15.6381 10.7346C15.4022 11.7701 14.918 12.7328 14.2271 13.5395C13.5362 14.3462 12.6595 14.9727 11.6725 15.3651L12.0764 16.3635C13.2489 15.8998 14.2884 15.1531 15.1022 14.1899C15.9159 13.2268 16.4786 12.0772 16.74 10.8437C17.0951 10.7597 17.412 10.5595 17.6403 10.2749C17.8685 9.99021 17.9952 9.63746 18 9.27261ZM16.3632 9.81824C16.2185 9.81824 16.0797 9.76075 15.9774 9.65843C15.875 9.5561 15.8175 9.41732 15.8175 9.27261C15.8175 9.12791 15.875 8.98912 15.9774 8.8868C16.0797 8.78447 16.2185 8.72699 16.3632 8.72699C16.5079 8.72699 16.6467 8.78447 16.749 8.8868C16.8513 8.98912 16.9088 9.12791 16.9088 9.27261C16.9088 9.41732 16.8513 9.5561 16.749 9.65843C16.6467 9.76075 16.5079 9.81824 16.3632 9.81824Z" fill="currentColor"/>
<path d="M10.7944 9.19717C11.1048 8.89413 11.3177 8.50547 11.4062 8.08082C11.4946 7.65616 11.4544 7.21479 11.2908 6.81307C11.1272 6.41135 10.8476 6.0675 10.4877 5.82544C10.1277 5.58338 9.7038 5.4541 9.27004 5.4541C8.83628 5.4541 8.41236 5.58338 8.05242 5.82544C7.69248 6.0675 7.41286 6.41135 7.24925 6.81307C7.08565 7.21479 7.04549 7.65616 7.13391 8.08082C7.22233 8.50547 7.43532 8.89413 7.74566 9.19717C7.37634 9.44681 7.07381 9.78315 6.86455 10.1768C6.65529 10.5704 6.54567 11.0093 6.54529 11.455V12.5457H11.9999V11.4545C11.9989 11.0082 11.8885 10.5691 11.6784 10.1754C11.4682 9.78176 11.1647 9.44623 10.7944 9.19717ZM8.1816 7.63623C8.1816 7.49293 8.20983 7.35103 8.26467 7.21863C8.31951 7.08623 8.39989 6.96593 8.50122 6.8646C8.60255 6.76327 8.72285 6.68289 8.85525 6.62805C8.98764 6.57321 9.12955 6.54498 9.27285 6.54498C9.41616 6.54498 9.55806 6.57321 9.69045 6.62805C9.82285 6.68289 9.94315 6.76327 10.0445 6.8646C10.1458 6.96593 10.2262 7.08623 10.281 7.21863C10.3359 7.35103 10.3641 7.49293 10.3641 7.63623C10.3641 7.92565 10.2491 8.20321 10.0445 8.40786C9.83983 8.61251 9.56227 8.72748 9.27285 8.72748C8.98343 8.72748 8.70587 8.61251 8.50122 8.40786C8.29657 8.20321 8.1816 7.92565 8.1816 7.63623ZM7.63598 11.4545C7.63194 11.237 7.6713 11.0209 7.75173 10.8188C7.83217 10.6167 7.95207 10.4327 8.10445 10.2775C8.25682 10.1223 8.4386 9.99895 8.63916 9.91479C8.83973 9.83062 9.05506 9.78727 9.27257 9.78727C9.49008 9.78727 9.70541 9.83062 9.90598 9.91479C10.1065 9.99895 10.2883 10.1223 10.4407 10.2775C10.5931 10.4327 10.713 10.6167 10.7934 10.8188C10.8738 11.0209 10.9132 11.237 10.9092 11.4545H7.63598Z" fill="currentColor"/>
</g>
<defs>
<clipPath id="clip0_1301_8325">
<rect width="18" height="18" fill="white"/>
</clipPath>
</defs>
</svg>
