<svg width="20" height="20" viewBox="0 0 20 20" fill="none" xmlns="http://www.w3.org/2000/svg">
<path d="M8.00195 5.99995C8.00195 4.89649 8.89649 4.00195 9.99995 4.00195C11.1034 4.00195 11.998 4.89649 11.998 5.99995C11.998 7.10342 11.1034 7.99796 9.99995 7.99796C8.89649 7.99796 8.00195 7.10342 8.00195 5.99995ZM9.99995 5.00195C9.44877 5.00195 9.00195 5.44877 9.00195 5.99995C9.00195 6.55114 9.44877 6.99796 9.99995 6.99796C10.5511 6.99796 10.998 6.55114 10.998 5.99995C10.998 5.44877 10.5511 5.00195 9.99995 5.00195ZM13 6.49994C13 5.67151 13.6716 4.99994 14.5 4.99994C15.3284 4.99994 16 5.67151 16 6.49994C16 7.32837 15.3284 7.99994 14.5 7.99994C13.6716 7.99994 13 7.32837 13 6.49994ZM14.5 5.99994C14.2239 5.99994 14 6.2238 14 6.49994C14 6.77608 14.2239 6.99994 14.5 6.99994C14.7761 6.99994 15 6.77608 15 6.49994C15 6.2238 14.7761 5.99994 14.5 5.99994ZM5.5 4.99994C4.67157 4.99994 4 5.67151 4 6.49994C4 7.32837 4.67157 7.99994 5.5 7.99994C6.32843 7.99994 7 7.32837 7 6.49994C7 5.67151 6.32843 4.99994 5.5 4.99994ZM5 6.49994C5 6.2238 5.22386 5.99994 5.5 5.99994C5.77614 5.99994 6 6.2238 6 6.49994C6 6.77608 5.77614 6.99994 5.5 6.99994C5.22386 6.99994 5 6.77608 5 6.49994ZM6.26756 8.99963C6.09739 9.29381 6 9.63535 6 9.99963L4 9.99963V12.5C4 13.3284 4.67157 14 5.5 14C5.71194 14 5.91361 13.956 6.09639 13.8767C6.1705 14.2081 6.28572 14.524 6.43643 14.8187C6.14721 14.9356 5.83112 15 5.5 15C4.11929 15 3 13.8807 3 12.5V9.99963C3 9.44735 3.44772 8.99963 4 8.99963H6.26756ZM13.5636 14.8187C13.8528 14.9356 14.1689 15 14.5 15C15.8807 15 17 13.8807 17 12.5V9.99963C17 9.44735 16.5523 8.99963 16 8.99963H13.7324C13.9026 9.29381 14 9.63535 14 9.99963L16 9.99963V12.5C16 13.3284 15.3284 14 14.5 14C14.2881 14 14.0864 13.956 13.9036 13.8767C13.8295 14.2081 13.7143 14.524 13.5636 14.8187ZM8 8.99963C7.44772 8.99963 7 9.44735 7 9.99963V13C7 14.6568 8.34315 16 10 16C11.6569 16 13 14.6568 13 13V9.99963C13 9.44735 12.5523 8.99963 12 8.99963H8ZM8 9.99963L12 9.99963V13C12 14.1045 11.1046 15 10 15C8.89543 15 8 14.1045 8 13V9.99963Z" fill="currentColor"/>
</svg>
