<svg width="16" height="16" viewBox="0 0 16 16" fill="none" xmlns="http://www.w3.org/2000/svg">
<path d="M5.75 14.75H10.25M5.75 14.75V11M5.75 14.75H1.7C1.58065 14.75 1.46619 14.7026 1.3818 14.6182C1.29741 14.5338 1.25 14.4193 1.25 14.3V11.45C1.25 11.3307 1.29741 11.2162 1.3818 11.1318C1.46619 11.0474 1.58065 11 1.7 11H5.75M10.25 14.75V5.75M10.25 14.75H14.3C14.4193 14.75 14.5338 14.7026 14.6182 14.6182C14.7026 14.5338 14.75 14.4193 14.75 14.3V1.7C14.75 1.58065 14.7026 1.46619 14.6182 1.3818C14.5338 1.29741 14.4193 1.25 14.3 1.25H10.7C10.5807 1.25 10.4662 1.29741 10.3818 1.3818C10.2974 1.46619 10.25 1.58065 10.25 1.7V5.75M5.75 11V6.2C5.75 6.08065 5.79741 5.96619 5.8818 5.8818C5.96619 5.79741 6.08065 5.75 6.2 5.75H10.25" stroke="currentColor"/>
</svg>
