<svg width="16" height="16" viewBox="0 0 16 16" fill="none" xmlns="http://www.w3.org/2000/svg">
<path d="M7.19996 5.19961C7.19996 3.21138 8.81173 1.59961 10.8 1.59961C11.3275 1.59961 11.8295 1.71332 12.282 1.91794C12.4016 1.97206 12.4871 2.08146 12.5107 2.21066C12.5342 2.33986 12.4928 2.47239 12.4 2.56525L10.5656 4.39959L11.6 5.43391L13.4343 3.59959C13.5272 3.50673 13.6597 3.46536 13.7889 3.48892C13.9181 3.51248 14.0275 3.59795 14.0816 3.71761C14.2863 4.17009 14.4 4.67211 14.4 5.19961C14.4 6.12921 14.0476 6.97651 13.4692 7.61526C13.2024 7.48988 12.921 7.39051 12.6282 7.32041C13.2233 6.80695 13.6 6.04727 13.6 5.19961C13.6 5.00223 13.5796 4.80986 13.5409 4.62439L11.8829 6.28243C11.7266 6.43863 11.4734 6.43864 11.3172 6.28243L9.71711 4.68245C9.64209 4.60744 9.59995 4.5057 9.59994 4.39961C9.59994 4.29352 9.64209 4.19177 9.7171 4.11676L11.3752 2.45867C11.1897 2.41997 10.9973 2.39961 10.8 2.39961C9.25356 2.39961 7.99996 3.65321 7.99996 5.19961C7.99996 5.445 8.03143 5.68244 8.09034 5.90839C8.12552 6.04328 8.08793 6.18674 7.99114 6.28706L2.70091 11.7698C2.2567 12.2302 2.30475 12.9729 2.80459 13.3722C3.23877 13.719 3.86474 13.6821 4.25512 13.2866L7.50001 9.99934C7.32471 10.4481 7.22097 10.9328 7.20282 11.4392L4.82447 13.8486C4.14647 14.5355 3.05933 14.5996 2.30527 13.9972C1.43718 13.3038 1.35373 12.0139 2.12521 11.2143L7.26556 5.88689C7.22248 5.66416 7.19996 5.43435 7.19996 5.19961ZM8.50761 11.1356C9.37797 10.9133 9.89477 10.0182 9.65214 9.15327L9.52719 8.70785C9.73046 8.55161 9.95077 8.41777 10.1847 8.30986L10.4546 8.59623C11.0857 9.26593 12.1504 9.26649 12.7822 8.59746L13.042 8.32243C13.2802 8.43484 13.504 8.57426 13.7098 8.73689L13.6089 9.07472C13.3454 9.95644 13.8782 10.8781 14.7737 11.0899L15.0529 11.1559C15.0702 11.3013 15.0791 11.4494 15.0791 11.5996C15.0791 11.7244 15.0729 11.8477 15.061 11.9692L14.6925 12.0633C13.8222 12.2857 13.3054 13.1808 13.548 14.0457L13.6729 14.491C13.4697 14.6473 13.2494 14.7812 13.0154 14.8891L12.7456 14.6028C12.1144 13.9331 11.0498 13.9325 10.4179 14.6015L10.1579 14.8768C9.91976 14.7645 9.69597 14.6251 9.49022 14.4625L9.59129 14.1243C9.85477 13.2426 9.32198 12.3209 8.42643 12.1091L8.14678 12.043C8.12954 11.8977 8.12065 11.7497 8.12065 11.5996C8.12065 11.4748 8.12679 11.3514 8.13878 11.2299L8.50761 11.1356ZM10.7999 11.5996C10.7999 12.0414 11.158 12.3996 11.5999 12.3996C12.0417 12.3996 12.3999 12.0414 12.3999 11.5996C12.3999 11.1578 12.0417 10.7996 11.5999 10.7996C11.158 10.7996 10.7999 11.1578 10.7999 11.5996Z" fill="currentColor"/>
</svg>
