<svg width="36" height="37" viewBox="0 0 36 37" fill="none" xmlns="http://www.w3.org/2000/svg">
<rect y="0.5" width="35.9998" height="36" rx="17.9999" fill="#008EAA"/>
<path d="M18 10.5C18.0796 10.5795 18.1597 10.5791 18.2393 10.5791H18.3184C18.398 10.6587 18.478 10.6587 18.5576 10.7383L24.1299 16.3105C24.2095 16.3901 24.2891 16.4702 24.2891 16.5498V16.6289C24.3686 16.7085 24.3682 16.7886 24.3682 16.8682V23.3154C24.3682 25.0666 22.9357 26.4998 21.1846 26.5H14.8164C13.0651 26.5 11.6318 25.0667 11.6318 23.3154V13.7637C11.6318 12.0124 13.0651 10.5796 14.8164 10.5H18ZM14.8164 12.1709C13.9408 12.1709 13.2236 12.888 13.2236 13.7637V23.3154C13.2236 24.1911 13.9408 24.9082 14.8164 24.9082H21.1846C22.0601 24.908 22.7764 24.191 22.7764 23.3154V17.7432H20.3887C18.6375 17.7432 17.2042 16.3108 17.2041 14.5596V12.1709H14.8164ZM20.3887 20.9277C20.866 20.9279 21.1845 21.2462 21.1846 21.7236C21.1846 22.2011 20.866 22.5193 20.3887 22.5195H15.6123C15.1347 22.5195 14.8164 22.2013 14.8164 21.7236C14.8165 21.2461 15.1347 20.9277 15.6123 20.9277H20.3887ZM17.2041 17.7432C17.6817 17.7432 18 18.0624 18 18.54C17.9998 19.0174 17.6816 19.3359 17.2041 19.3359H15.6123C15.1348 19.3359 14.8166 19.0174 14.8164 18.54C14.8164 18.0624 15.1347 17.7432 15.6123 17.7432H17.2041ZM18.7959 14.5596C18.796 15.4351 19.5131 16.1514 20.3887 16.1514H21.6621L18.7959 13.2861V14.5596Z" fill="white"/>
</svg>
