<svg width="25" height="24" viewBox="0 0 25 24" fill="none" xmlns="http://www.w3.org/2000/svg">
<path d="M18.5 4.56066V21.25C18.5 21.6642 18.1642 22 17.75 22C17.3358 22 17 21.6642 17 21.25V4.56066L14.7803 6.78033C14.4874 7.07322 14.0126 7.07322 13.7197 6.78033C13.4268 6.48744 13.4268 6.01256 13.7197 5.71967L17.2197 2.21967C17.5126 1.92678 17.9874 1.92678 18.2803 2.21967L21.7803 5.71967C22.0732 6.01256 22.0732 6.48744 21.7803 6.78033C21.4874 7.07322 21.0126 7.07322 20.7197 6.78033L18.5 4.56066ZM3.625 5.87732C3.625 3.73701 5.36006 2.00195 7.50037 2.00195C9.64067 2.00195 11.3757 3.73701 11.3757 5.87732C11.3757 8.827 10.1705 12.4412 9.56462 14.0809C9.24086 14.957 8.40567 15.4995 7.50253 15.4995C6.59696 15.4995 5.76055 14.9542 5.43776 14.0759C4.83243 12.4289 3.625 8.79606 3.625 5.87732ZM7.50037 3.50195C6.18849 3.50195 5.125 4.56544 5.125 5.87732C5.125 8.50056 6.23867 11.9069 6.84568 13.5585C6.94122 13.8184 7.19541 13.9995 7.50253 13.9995C7.80895 13.9995 8.06212 13.8194 8.15762 13.561C8.76395 11.9202 9.87574 8.53153 9.87574 5.87732C9.87574 4.56544 8.81225 3.50195 7.50037 3.50195ZM5 19.5021C5 18.1208 6.11979 17.001 7.50112 17.001C8.88245 17.001 10.0022 18.1208 10.0022 19.5021C10.0022 20.8834 8.88245 22.0032 7.50112 22.0032C6.11979 22.0032 5 20.8834 5 19.5021ZM7.50112 18.501C6.94822 18.501 6.5 18.9492 6.5 19.5021C6.5 20.055 6.94822 20.5032 7.50112 20.5032C8.05402 20.5032 8.50224 20.055 8.50224 19.5021C8.50224 18.9492 8.05402 18.501 7.50112 18.501Z" fill="#616161"/>
</svg>
