<svg width="17" height="16" viewBox="0 0 17 16" fill="none" xmlns="http://www.w3.org/2000/svg">
<path d="M5.02018 2.14645C4.82492 1.95118 4.50833 1.95118 4.31307 2.14645L1.31307 5.14645C1.11781 5.34171 1.11781 5.65829 1.31307 5.85355C1.50833 6.04882 1.82492 6.04882 2.02018 5.85355L4.16663 3.70711V13.5C4.16663 13.7761 4.39048 14 4.66663 14C4.94277 14 5.16663 13.7761 5.16663 13.5V3.70711L7.31307 5.85355C7.50833 6.04882 7.82492 6.04882 8.02018 5.85355C8.21544 5.65829 8.21544 5.34171 8.02018 5.14645L5.02018 2.14645ZM11.3191 13.8595C11.5129 14.0468 11.8203 14.0468 12.0141 13.8595L15.0141 10.9594C15.2127 10.7675 15.218 10.4509 15.0261 10.2524C14.8342 10.0538 14.5176 10.0485 14.3191 10.2404L12.1666 12.3212L12.1666 2.5001C12.1666 2.22395 11.9428 2.0001 11.6666 2.0001C11.3905 2.0001 11.1666 2.22395 11.1666 2.5001L11.1666 12.3212L9.01414 10.2404C8.8156 10.0485 8.49907 10.0538 8.30714 10.2524C8.11521 10.4509 8.12057 10.7675 8.31911 10.9594L11.3191 13.8595Z" fill="#616161"/>
</svg>
