<svg width="11" height="12" viewBox="0 0 11 12" fill="none" xmlns="http://www.w3.org/2000/svg">
<path d="M0.283203 5.975C0.283203 6.251 0.507203 6.475 0.783203 6.475C0.911203 6.475 1.0392 6.426 1.1372 6.329L5.7322 1.732C6.2202 1.244 6.8602 1 7.5002 1C8.8812 1 10.0002 2.119 10.0002 3.5C10.0002 4.14 9.7562 4.78 9.2682 5.268L3.9652 10.571C3.7702 10.766 3.5142 10.864 3.2582 10.864C2.7062 10.864 2.2582 10.416 2.2582 9.864C2.2582 9.608 2.3562 9.352 2.5512 9.157L7.8542 3.854C7.9522 3.756 8.0002 3.628 8.0002 3.5C8.0002 3.224 7.7762 3 7.5002 3C7.3722 3 7.2442 3.049 7.1462 3.146L1.8432 8.45C1.4522 8.841 1.2572 9.352 1.2572 9.864C1.2572 10.969 2.1522 11.864 3.2572 11.864C3.7692 11.864 4.2812 11.669 4.6712 11.278L9.9742 5.975C10.6572 5.292 10.9992 4.396 10.9992 3.5C10.9992 1.567 9.4322 0 7.4992 0C6.6032 0 5.7082 0.342 5.0242 1.025L0.429203 5.621C0.331203 5.719 0.283203 5.847 0.283203 5.975Z" fill="#242424"/>
</svg>
