<svg width="18" height="18" viewBox="0 0 18 18" fill="none" xmlns="http://www.w3.org/2000/svg">
<path d="M16 3.184V3C16 2.20435 15.6839 1.44129 15.1213 0.87868C14.5587 0.316071 13.7956 0 13 0C12.2044 0 11.4413 0.316071 10.8787 0.87868C10.3161 1.44129 10 2.20435 10 3H8C8 2.20435 7.68393 1.44129 7.12132 0.87868C6.55871 0.316071 5.79565 0 5 0C4.20435 0 3.44129 0.316071 2.87868 0.87868C2.31607 1.44129 2 2.20435 2 3V3.184C1.41685 3.38971 0.911605 3.77076 0.553542 4.27491C0.195478 4.77907 0.00212751 5.38164 0 6V15C0 16.654 1.346 18 3 18H15C16.654 18 18 16.654 18 15V6C17.9979 5.38164 17.8045 4.77907 17.4465 4.27491C17.0884 3.77076 16.5832 3.38971 16 3.184ZM12 3C12 2.73478 12.1054 2.48043 12.2929 2.29289C12.4804 2.10536 12.7348 2 13 2C13.2652 2 13.5196 2.10536 13.7071 2.29289C13.8946 2.48043 14 2.73478 14 3V5C14 5.26522 13.8946 5.51957 13.7071 5.70711C13.5196 5.89464 13.2652 6 13 6C12.7348 6 12.4804 5.89464 12.2929 5.70711C12.1054 5.51957 12 5.26522 12 5V3ZM4 3C4 2.73478 4.10536 2.48043 4.29289 2.29289C4.48043 2.10536 4.73478 2 5 2C5.26522 2 5.51957 2.10536 5.70711 2.29289C5.89464 2.48043 6 2.73478 6 3V5C6 5.26522 5.89464 5.51957 5.70711 5.70711C5.51957 5.89464 5.26522 6 5 6C4.73478 6 4.48043 5.89464 4.29289 5.70711C4.10536 5.51957 4 5.26522 4 5V3ZM16 15C16 15.551 15.552 16 15 16H3C2.448 16 2 15.551 2 15V9H16V15Z" fill="#A8B8B4"/>
</svg>
