<svg width="16" height="16" viewBox="0 0 16 16" fill="none" xmlns="http://www.w3.org/2000/svg">
<g clip-path="url(#clip0_706_23237)">
<path d="M14.0064 12.2658C14.9601 11.4158 15.5002 10.2829 15.5002 9.10716C15.5002 7.85766 14.9152 6.68909 13.8531 5.81653C12.8193 4.96759 11.451 4.5 10 4.5C8.549 4.5 7.18069 4.96759 6.14709 5.81659C5.08494 6.68909 4.5 7.85766 4.5 9.10716C4.5 10.3567 5.08494 11.5252 6.14709 12.3978C7.18069 13.2468 8.549 13.7143 10 13.7143C10.1933 13.7143 10.3879 13.7058 10.5808 13.6888L10.9103 13.9745C12.0457 14.9583 13.4977 15.4999 15 15.5H15.5V14.4357L15.3536 14.2893C14.7759 13.7099 14.3181 13.0223 14.0064 12.2658ZM11.5653 13.2188L10.904 12.6456L10.6835 12.6726C10.4567 12.7004 10.2285 12.7143 10 12.7143C7.51875 12.7143 5.5 11.0961 5.5 9.10716C5.5 7.11819 7.51875 5.5 10 5.5C12.4812 5.5 14.5 7.11816 14.5 9.10716C14.5 10.0981 14.0056 11.0232 13.1079 11.7121L12.82 11.9331L12.9528 12.3092C13.2252 13.0773 13.6254 13.7938 14.1367 14.4284C13.1845 14.2695 12.2948 13.8509 11.5653 13.2188Z" fill="#616161"/>
<path d="M1.88078 9.92113C2.34882 9.32866 2.7163 8.66331 2.96853 7.95166L3.10041 7.57744L2.81269 7.35663C1.96619 6.70706 1.5 5.83525 1.5 4.90178C1.5 3.02603 3.40653 1.5 5.75 1.5C7.474 1.5 8.96147 2.32594 9.62741 3.50938C9.75106 3.50338 9.87525 3.5 10 3.5C10.2506 3.5 10.4988 3.51216 10.7448 3.53647C10.4875 2.86975 10.0405 2.26113 9.42606 1.75644C8.43975 0.946219 7.13438 0.5 5.75 0.5C4.36562 0.5 3.06025 0.946219 2.07387 1.75644C1.05894 2.59016 0.5 3.70719 0.5 4.90178C0.5 6.02053 1.011 7.0985 1.91406 7.90938C1.61936 8.61859 1.18874 9.2633 0.646469 9.80716L0.5 9.95359V11H1C1.9246 10.9999 2.83648 10.7846 3.66347 10.3711C3.57279 10.0274 3.51965 9.67486 3.505 9.31969C3.00306 9.61389 2.45327 9.81747 1.88078 9.92113Z" fill="#616161"/>
</g>
<defs>
<clipPath id="clip0_706_23237">
<rect width="16" height="16" fill="white"/>
</clipPath>
</defs>
</svg>
