<svg width="13" height="12" viewBox="0 0 13 12" fill="none" xmlns="http://www.w3.org/2000/svg">
<path d="M1.07248 0.215694L1.13033 0.146447C1.3039 -0.0271197 1.57332 -0.046405 1.76819 0.0885911L1.83744 0.146447L6.98389 5.293L12.1303 0.146447C12.3039 -0.0271197 12.5733 -0.046405 12.7682 0.0885911L12.8374 0.146447C13.011 0.320013 13.0303 0.589437 12.8953 0.784306L12.8374 0.853553L7.69089 6L12.8374 11.1464C13.011 11.32 13.0303 11.5894 12.8953 11.7843L12.8374 11.8536C12.6639 12.0271 12.3944 12.0464 12.1996 11.9114L12.1303 11.8536L6.98389 6.707L1.83744 11.8536C1.66387 12.0271 1.39445 12.0464 1.19958 11.9114L1.13033 11.8536C0.956767 11.68 0.937482 11.4106 1.07248 11.2157L1.13033 11.1464L6.27689 6L1.13033 0.853553C0.956767 0.679987 0.937482 0.410563 1.07248 0.215694L1.13033 0.146447L1.07248 0.215694Z" fill="#424242"/>
</svg>
