<svg width="21" height="20" viewBox="0 0 21 20" fill="none" xmlns="http://www.w3.org/2000/svg">
<path d="M4.83301 3H5.83301C6.38529 3 6.83301 3.44772 6.83301 4V8H7.83301V4C7.83301 2.89543 6.93758 2 5.83301 2H4.83301C3.72844 2 2.83301 2.89543 2.83301 4V15C2.83301 16.1046 3.72844 17 4.83301 17H5.83301C6.93758 17 7.83301 16.1046 7.83301 15V11H6.83301V15C6.83301 15.5523 6.38529 16 5.83301 16H4.83301C4.28072 16 3.83301 15.5523 3.83301 15V4C3.83301 3.44772 4.28072 3 4.83301 3ZM15.833 2C14.7284 2 13.833 2.89543 13.833 4V15C13.833 16.1046 14.7284 17 15.833 17H16.833C17.9376 17 18.833 16.1046 18.833 15V4C18.833 2.89543 17.9376 2 16.833 2H15.833ZM16.833 3C17.3853 3 17.833 3.44772 17.833 4V15C17.833 15.5523 17.3853 16 16.833 16H15.833C15.2807 16 14.833 15.5523 14.833 15V4C14.833 3.44772 15.2807 3 15.833 3H16.833ZM9.97945 7.14645C10.1747 6.95118 10.4913 6.95118 10.6866 7.14645L12.6866 9.14645C12.8818 9.34171 12.8818 9.65829 12.6866 9.85355L10.6866 11.8536C10.4913 12.0488 10.1747 12.0488 9.97945 11.8536C9.78419 11.6583 9.78419 11.3417 9.97945 11.1464L11.1259 10L6.33301 10C6.05687 10 5.83301 9.77614 5.83301 9.5C5.83301 9.22386 6.05687 9 6.33301 9L11.1259 9L9.97945 7.85355C9.78419 7.65829 9.78419 7.34171 9.97945 7.14645Z" fill="#0078D4"/>
</svg>
