<svg width="18" height="18" viewBox="0 0 18 18" fill="none" xmlns="http://www.w3.org/2000/svg">
<path d="M0.910747 6.38266C1.28004 5.24053 1.88839 4.19213 2.69109 3.30364C2.82683 3.15339 3.03978 3.09984 3.23044 3.16802L5.14873 3.85392C5.6688 4.03977 6.24107 3.76883 6.42692 3.24875C6.4452 3.19762 6.45927 3.14507 6.469 3.09173L6.83446 1.08573C6.8708 0.886273 7.02398 0.728505 7.22227 0.686297C7.80246 0.562802 8.39734 0.5 9.00001 0.5C9.60232 0.5 10.1968 0.562725 10.7767 0.686072C10.9749 0.728241 11.1281 0.88591 11.1645 1.08529L11.531 3.09165C11.6301 3.63497 12.1509 3.9951 12.6942 3.89601C12.7476 3.88627 12.8002 3.87219 12.8512 3.85395L14.7696 3.16802C14.9602 3.09984 15.1732 3.15339 15.3089 3.30364C16.1116 4.19213 16.72 5.24053 17.0893 6.38266C17.1516 6.57534 17.0915 6.78658 16.9371 6.91764L15.3823 8.23773C14.9613 8.5952 14.9098 9.22627 15.2673 9.64726C15.3024 9.68865 15.3409 9.72712 15.3823 9.76225L16.9371 11.0824C17.0915 11.2134 17.1516 11.4247 17.0893 11.6173C16.72 12.7595 16.1116 13.8079 15.3089 14.6964C15.1732 14.8466 14.9602 14.9002 14.7696 14.832L12.8513 14.1461C12.3312 13.9602 11.759 14.2312 11.5731 14.7512C11.5548 14.8024 11.5408 14.8549 11.531 14.9085L11.1645 16.9147C11.1281 17.1141 10.9749 17.2718 10.7767 17.3139C10.1968 17.4373 9.60232 17.5 9.00001 17.5C8.39734 17.5 7.80246 17.4372 7.22227 17.3137C7.02398 17.2715 6.8708 17.1137 6.83446 16.9143L6.46902 14.9084C6.36993 14.365 5.84916 14.0049 5.30583 14.104C5.25241 14.1137 5.19987 14.1278 5.14881 14.1461L3.23044 14.832C3.03978 14.9002 2.82683 14.8466 2.69109 14.6964C1.88839 13.8079 1.28004 12.7595 0.910747 11.6173C0.848447 11.4247 0.908519 11.2134 1.06289 11.0824L2.61773 9.76227C3.03872 9.4048 3.09021 8.77373 2.73274 8.35274C2.69759 8.31135 2.65913 8.27288 2.61775 8.23775L1.06289 6.91764C0.908519 6.78658 0.848447 6.57534 0.910747 6.38266ZM1.9713 6.37709L3.26499 7.47546C3.34778 7.54576 3.42471 7.62269 3.49501 7.70548C4.20995 8.54746 4.10697 9.8096 3.26497 10.5246L1.9713 11.6229C2.26335 12.4051 2.6848 13.1322 3.21623 13.7751L4.81221 13.2044C4.91449 13.1679 5.01958 13.1397 5.12643 13.1202C6.21307 12.922 7.25462 13.6423 7.45281 14.729L7.75678 16.3975C8.16465 16.4655 8.58 16.5 9.00001 16.5C9.41974 16.5 9.83482 16.4656 10.2424 16.3976L10.5472 14.7289C10.5667 14.6221 10.5949 14.517 10.6314 14.4147C11.0031 13.3746 12.1477 12.8327 13.1879 13.2044L14.7838 13.7751C15.3152 13.1322 15.7367 12.4051 16.0287 11.6229L14.735 10.5245C14.6522 10.4542 14.5753 10.3773 14.505 10.2945C13.7901 9.45254 13.8931 8.1904 14.7351 7.47544L16.0287 6.37709C15.7367 5.59486 15.3152 4.86783 14.7838 4.22494L13.1878 4.79559C13.0855 4.83214 12.9804 4.8603 12.8736 4.87979C11.787 5.07796 10.7454 4.3577 10.5473 3.27119L10.2424 1.60235C9.83482 1.53443 9.41974 1.5 9.00001 1.5C8.58 1.5 8.16465 1.53448 7.75678 1.60249L7.45279 3.27105C7.43331 3.37791 7.40515 3.48299 7.3686 3.58527C6.99689 4.62542 5.85236 5.1673 4.81213 4.79556L3.21623 4.22494C2.6848 4.86783 2.26335 5.59486 1.9713 6.37709ZM6.50001 9C6.50001 7.61929 7.6193 6.5 9.00001 6.5C10.3807 6.5 11.5 7.61929 11.5 9C11.5 10.3807 10.3807 11.5 9.00001 11.5C7.6193 11.5 6.50001 10.3807 6.50001 9ZM7.50001 9C7.50001 9.82843 8.17159 10.5 9.00001 10.5C9.82844 10.5 10.5 9.82843 10.5 9C10.5 8.17157 9.82844 7.5 9.00001 7.5C8.17159 7.5 7.50001 8.17157 7.50001 9Z" fill="#424242"/>
</svg>
