<svg width="18" height="18" viewBox="0 0 18 18" fill="none" xmlns="http://www.w3.org/2000/svg">
<path fill-rule="evenodd" clip-rule="evenodd" d="M1.87604 1.87601C2.02948 1.72257 2.23759 1.63637 2.45459 1.63637H9.81836C10.0354 1.63637 10.2435 1.72257 10.3969 1.87601C10.5504 2.02945 10.6366 2.23756 10.6366 2.45456V3.27275C10.6366 3.72462 11.0029 4.09093 11.4547 4.09093C11.9066 4.09093 12.2729 3.72462 12.2729 3.27275V2.45456C12.2729 1.80357 12.0143 1.17924 11.554 0.718924C11.0937 0.258605 10.4694 0 9.81836 0H2.45459C1.80359 0 1.17926 0.258605 0.718933 0.718924C0.258608 1.17924 0 1.80357 0 2.45456V9.81824C0 10.4692 0.258608 11.0936 0.718933 11.5539C1.17926 12.0142 1.80359 12.2728 2.45459 12.2728H3.27279C3.72466 12.2728 4.09098 11.9065 4.09098 11.4546C4.09098 11.0027 3.72466 10.6364 3.27279 10.6364H2.45459C2.23759 10.6364 2.02948 10.5502 1.87604 10.3968C1.7226 10.2433 1.63639 10.0352 1.63639 9.81824V2.45456C1.63639 2.23756 1.7226 2.02945 1.87604 1.87601ZM7.36326 8.18182C7.36326 7.72995 7.72958 7.36364 8.18146 7.36364H15.5452C15.9971 7.36364 16.3634 7.72995 16.3634 8.18182V15.5455C16.3634 15.9974 15.9971 16.3637 15.5452 16.3637H8.18146C7.72958 16.3637 7.36326 15.9974 7.36326 15.5455V8.18182ZM8.18146 5.72726C6.82583 5.72726 5.72687 6.82621 5.72687 8.18182V15.5455C5.72687 16.9011 6.82583 18.0001 8.18146 18.0001H15.5452C16.9009 18.0001 17.9998 16.9011 17.9998 15.5455V8.18182C17.9998 6.82621 16.9009 5.72726 15.5452 5.72726H8.18146Z" fill="#A8B8B4"/>
</svg>
