<svg width="14" height="14" viewBox="0 0 14 14" fill="none" xmlns="http://www.w3.org/2000/svg">
<path d="M9.099 5.00361L7.66352 3.19543C7.79533 3.04225 7.875 2.84293 7.875 2.625C7.875 2.14175 7.48325 1.75 7 1.75C6.51675 1.75 6.125 2.14175 6.125 2.625C6.125 2.84263 6.20445 3.04171 6.33594 3.1948L4.90093 5.00343C4.77465 5.16259 4.55541 5.21387 4.37164 5.12723L2.17404 4.09122C2.18289 4.04131 2.1875 3.98995 2.1875 3.9375C2.1875 3.45425 1.79575 3.0625 1.3125 3.0625C0.829251 3.0625 0.4375 3.45425 0.4375 3.9375C0.4375 4.42075 0.829251 4.8125 1.3125 4.8125C1.33884 4.8125 1.36491 4.81134 1.39066 4.80906L2.528 10.4958C2.63025 11.007 3.07914 11.375 3.60051 11.375H10.3995C10.9209 11.375 11.3698 11.007 11.472 10.4958L12.6094 4.80906C12.6351 4.81134 12.6612 4.8125 12.6875 4.8125C13.1707 4.8125 13.5625 4.42075 13.5625 3.9375C13.5625 3.45425 13.1707 3.0625 12.6875 3.0625C12.2043 3.0625 11.8125 3.45425 11.8125 3.9375C11.8125 3.98995 11.8171 4.04132 11.826 4.09123L9.6282 5.12732C9.44447 5.21393 9.22529 5.1627 9.099 5.00361ZM7 8.75C6.51675 8.75 6.125 8.35825 6.125 7.875C6.125 7.39175 6.51675 7 7 7C7.48325 7 7.875 7.39175 7.875 7.875C7.875 8.35825 7.48325 8.75 7 8.75Z" fill="white"/>
</svg>
