<svg width="17" height="16" viewBox="0 0 17 16" fill="none" xmlns="http://www.w3.org/2000/svg">
<path d="M7.83301 3H9.83301C9.83301 2.44772 9.38529 2 8.83301 2C8.28072 2 7.83301 2.44772 7.83301 3ZM6.83301 3C6.83301 1.89543 7.72844 1 8.83301 1C9.93758 1 10.833 1.89543 10.833 3H14.833C15.1091 3 15.333 3.22386 15.333 3.5C15.333 3.77614 15.1091 4 14.833 4H14.2695L13.0643 12.8378C12.8954 14.0765 11.8374 15 10.5872 15H7.07879C5.82861 15 4.77063 14.0765 4.60171 12.8378L3.39656 4H2.83301C2.55687 4 2.33301 3.77614 2.33301 3.5C2.33301 3.22386 2.55687 3 2.83301 3H6.83301ZM7.83301 6.5C7.83301 6.22386 7.60915 6 7.33301 6C7.05687 6 6.83301 6.22386 6.83301 6.5V11.5C6.83301 11.7761 7.05687 12 7.33301 12C7.60915 12 7.83301 11.7761 7.83301 11.5V6.5ZM10.333 6C10.6091 6 10.833 6.22386 10.833 6.5V11.5C10.833 11.7761 10.6091 12 10.333 12C10.0569 12 9.83301 11.7761 9.83301 11.5V6.5C9.83301 6.22386 10.0569 6 10.333 6ZM5.59254 12.7027C5.69389 13.4459 6.32868 14 7.07879 14H10.5872C11.3373 14 11.9721 13.4459 12.0735 12.7027L13.2602 4H4.40582L5.59254 12.7027Z" fill="#B10E1C"/>
</svg>
