<svg width="10" height="6" viewBox="0 0 10 6" fill="none" xmlns="http://www.w3.org/2000/svg">
<path d="M5.43875 5.80457C5.445 5.79737 5.4475 5.78777 5.45375 5.78057L9.8172 1.15203C10.0609 0.891626 10.0609 0.469213 9.8172 0.208806C9.8147 0.206406 9.8122 0.205206 9.8097 0.204006C9.75547 0.140951 9.68756 0.0900248 9.6107 0.0547879C9.53384 0.019551 9.4499 0.000852857 9.36473 0H0.636582C0.549853 0.0013455 0.464489 0.0209583 0.386521 0.0574533C0.308554 0.0939483 0.239884 0.146435 0.185362 0.211206L0.182863 0.208806C0.0649085 0.339832 0 0.507235 0 0.680419C0 0.853604 0.0649085 1.02101 0.182863 1.15203L4.55631 5.80457C4.61076 5.86584 4.6784 5.91505 4.75458 5.94879C4.83075 5.98253 4.91364 6 4.99753 6C5.08142 6 5.16431 5.98253 5.24049 5.94879C5.31666 5.91505 5.38431 5.86584 5.43875 5.80457Z"/>
</svg>
