<svg width="9" height="13" viewBox="0 0 9 13" fill="none" xmlns="http://www.w3.org/2000/svg">
<path fill-rule="evenodd" clip-rule="evenodd" d="M0.361084 1.33366C0.361084 1.02424 0.484 0.727493 0.702793 0.508701C0.921585 0.289908 1.21833 0.166992 1.52775 0.166992H7.36109C7.67051 0.166992 7.96725 0.289908 8.18604 0.508701C8.40484 0.727493 8.52775 1.02424 8.52775 1.33366V1.91699C8.52775 2.75758 8.1725 3.65766 7.71109 4.43466C7.37263 5.00248 6.96787 5.52806 6.50534 6.00033C6.96746 6.47266 7.37182 6.99823 7.70992 7.56599C8.1725 8.34299 8.52775 9.24366 8.52775 10.0837V10.667C8.52775 10.9764 8.40484 11.2732 8.18604 11.4919C7.96725 11.7107 7.67051 11.8337 7.36109 11.8337H1.52775C1.21833 11.8337 0.921585 11.7107 0.702793 11.4919C0.484 11.2732 0.361084 10.9764 0.361084 10.667V10.0837C0.361084 9.24308 0.716334 8.34299 1.17775 7.56599C1.51621 6.99817 1.92097 6.4726 2.3835 6.00033C1.9425 5.55291 1.52017 5.00866 1.17892 4.43466C0.716334 3.65766 0.361084 2.75699 0.361084 1.91699V1.33366ZM7.36109 1.33366H1.52775V1.91699C1.52775 2.45891 1.76925 3.14608 2.18108 3.83849C2.58708 4.52099 3.11967 5.14283 3.61492 5.54941C3.68159 5.60413 3.7353 5.67295 3.77218 5.75092C3.80905 5.82889 3.82818 5.91407 3.82818 6.00033C3.82818 6.08658 3.80905 6.17176 3.77218 6.24973C3.7353 6.3277 3.68159 6.39652 3.61492 6.45124C3.11908 6.85783 2.58708 7.47966 2.18108 8.16216C1.76925 8.85458 1.52775 9.54174 1.52775 10.0837V10.667H7.36109V10.0837C7.36109 9.54174 7.11959 8.85458 6.70775 8.16216C6.30175 7.47966 5.76917 6.85783 5.27392 6.45124C5.20725 6.39652 5.15354 6.3277 5.11666 6.24973C5.07978 6.17176 5.06066 6.08658 5.06066 6.00033C5.06066 5.91407 5.07978 5.82889 5.11666 5.75092C5.15354 5.67295 5.20725 5.60413 5.27392 5.54941C5.76975 5.14283 6.30175 4.52099 6.70775 3.83849C7.11959 3.14608 7.36109 2.45891 7.36109 1.91699V1.33366Z" fill="white"/>
</svg>
