<svg width="20" height="20" viewBox="0 0 20 20" fill="none" xmlns="http://www.w3.org/2000/svg">
<path d="M5.5 4C4.67157 4 4 4.67157 4 5.5V7.5C4 8.32843 4.67157 9 5.5 9H7.5C8.32843 9 9 8.32843 9 7.5V5.5C9 4.67157 8.32843 4 7.5 4H5.5ZM5 5.5C5 5.22386 5.22386 5 5.5 5H7.5C7.77614 5 8 5.22386 8 5.5V7.5C8 7.77614 7.77614 8 7.5 8H5.5C5.22386 8 5 7.77614 5 7.5V5.5ZM12.5 4C11.6716 4 11 4.67157 11 5.5V7.5C11 8.32843 11.6716 9 12.5 9H14.5C15.3284 9 16 8.32843 16 7.5V5.5C16 4.67157 15.3284 4 14.5 4H12.5ZM12 5.5C12 5.22386 12.2239 5 12.5 5H14.5C14.7761 5 15 5.22386 15 5.5V7.5C15 7.77614 14.7761 8 14.5 8H12.5C12.2239 8 12 7.77614 12 7.5V5.5ZM4 12.5C4 11.6716 4.67157 11 5.5 11H7.5C8.32843 11 9 11.6716 9 12.5V14.5C9 15.3284 8.32843 16 7.5 16H5.5C4.67157 16 4 15.3284 4 14.5V12.5ZM5.5 12C5.22386 12 5 12.2239 5 12.5V14.5C5 14.7761 5.22386 15 5.5 15H7.5C7.77614 15 8 14.7761 8 14.5V12.5C8 12.2239 7.77614 12 7.5 12H5.5ZM12.5 11C11.6716 11 11 11.6716 11 12.5V14.5C11 15.3284 11.6716 16 12.5 16H14.5C15.3284 16 16 15.3284 16 14.5V12.5C16 11.6716 15.3284 11 14.5 11H12.5ZM12 12.5C12 12.2239 12.2239 12 12.5 12H14.5C14.7761 12 15 12.2239 15 12.5V14.5C15 14.7761 14.7761 15 14.5 15H12.5C12.2239 15 12 14.7761 12 14.5V12.5Z" fill="#424242"/>
</svg>
