<svg width="25" height="24" viewBox="0 0 25 24" fill="none" xmlns="http://www.w3.org/2000/svg">
<path d="M18 19.5H7.5C7.4337 19.5 7.37011 19.4737 7.32322 19.4268C7.27634 19.3799 7.25 19.3163 7.25 19.25V18.65C7.25495 18.1264 7.38672 17.6118 7.63402 17.1503C7.88132 16.6888 8.2368 16.2941 8.67 16L10.75 14.52C11.1705 14.242 11.5199 13.8691 11.77 13.4314C12.0201 12.9938 12.164 12.5034 12.19 12H13.31C13.336 12.5034 13.4799 12.9938 13.73 13.4314C13.9801 13.8691 14.3295 14.242 14.75 14.52L16.83 16C17.2632 16.2941 17.6187 16.6888 17.866 17.1503C18.1133 17.6118 18.2451 18.1264 18.25 18.65V19.25C18.25 19.3163 18.2237 19.3799 18.1768 19.4268C18.1299 19.4737 18.0663 19.5 18 19.5ZM7.5 2C5.98122 2 4.75 3.23122 4.75 4.75V5.16905C4.75 7.18881 5.80972 9.06047 7.54165 10.0996L9.3521 11.1859C9.82166 11.4676 9.84078 12.1413 9.38796 12.4492L7.26672 13.8917C5.69237 14.9622 4.75 16.7426 4.75 18.6465V19.25C4.75 20.7688 5.98122 22 7.5 22H18C19.5188 22 20.75 20.7688 20.75 19.25V18.6465C20.75 16.7426 19.8076 14.9622 18.2333 13.8917L16.112 12.4492C15.6592 12.1413 15.6783 11.4676 16.1479 11.1859L17.9584 10.0996C19.6903 9.06047 20.75 7.18881 20.75 5.16905V4.75C20.75 3.23122 19.5188 2 18 2H7.5ZM6.25 4.75C6.25 4.05964 6.80964 3.5 7.5 3.5H18C18.6904 3.5 19.25 4.05964 19.25 4.75V5.16905C19.25 6.66192 18.4667 8.04532 17.1866 8.81339L15.3762 9.89966C13.9675 10.7449 13.9101 12.7658 15.2686 13.6896L17.3898 15.132C18.5535 15.9233 19.25 17.2393 19.25 18.6465V19.25C19.25 19.9404 18.6904 20.5 18 20.5H7.5C6.80964 20.5 6.25 19.9404 6.25 19.25V18.6465C6.25 17.2393 6.94654 15.9233 8.11018 15.132L10.2314 13.6896C11.5899 12.7658 11.5325 10.7449 10.1238 9.89966L8.31339 8.81339C7.03327 8.04532 6.25 6.66192 6.25 5.16905V4.75Z" fill="#616161"/>
</svg>
