<svg width="16" height="16" viewBox="0 0 16 16" fill="none" xmlns="http://www.w3.org/2000/svg">
<path d="M12.7662 7C12.2579 7.00039 11.7646 6.82781 11.3674 6.51063L10.0706 7.03844L9.85743 6.64375C9.81911 6.57311 9.77389 6.50643 9.72243 6.44469L9.27806 5.99406L10.5646 5.21469C10.4686 4.75976 10.5159 4.28625 10.6999 3.85928C10.884 3.43231 11.1958 3.07285 11.5925 2.83032C11.9892 2.5878 12.4513 2.47413 12.9152 2.50495C13.3792 2.53576 13.8222 2.70955 14.1833 3.0024C14.5444 3.29526 14.806 3.6928 14.9319 4.14037C15.0579 4.58793 15.0422 5.06353 14.8868 5.50177C14.7315 5.94 14.4442 6.31935 14.0644 6.58764C13.6847 6.85593 13.2311 6.99999 12.7662 7ZM12.7662 3.5C12.519 3.5 12.2773 3.57331 12.0717 3.71066C11.8662 3.84802 11.7059 4.04324 11.6113 4.27165C11.5167 4.50005 11.492 4.75139 11.5402 4.99386C11.5884 5.23634 11.7075 5.45907 11.8823 5.63388C12.0571 5.8087 12.2798 5.92775 12.5223 5.97598C12.7648 6.02421 13.0161 5.99946 13.2445 5.90485C13.4729 5.81024 13.6682 5.65003 13.8055 5.44446C13.9429 5.2389 14.0162 4.99723 14.0162 4.75C14.0162 4.41848 13.8845 4.10054 13.6501 3.86612C13.4156 3.6317 13.0977 3.5 12.7662 3.5Z" fill="#5347CD"/>
<path d="M0.999846 5.28153L1.17235 4.8884C1.31235 4.56278 1.63297 4.3884 2.19672 4.33059C2.51297 4.29934 3.03891 4.29184 3.74953 4.44965C4.37453 4.58872 7.56641 5.3309 8.90422 6.28153C9.53703 6.73122 9.6561 7.33372 9.74985 7.81778C9.83672 8.25965 9.9061 8.60872 10.3123 8.91153C10.7811 9.25965 11.1645 9.4234 11.3617 9.49278C11.7786 9.16178 12.2997 8.98994 12.8318 9.00801C13.3638 9.02608 13.872 9.23287 14.2655 9.59139C14.659 9.94991 14.9121 10.4368 14.9795 10.9648C15.0469 11.4929 14.9242 12.0277 14.6333 12.4735C14.3425 12.9194 13.9025 13.2472 13.392 13.3983C12.8816 13.5494 12.334 13.5139 11.8473 13.2982C11.3606 13.0825 10.9666 12.7007 10.7357 12.221C10.5048 11.7414 10.4521 11.1952 10.587 10.6803L0.999846 5.28153ZM8.0161 8.00028C8.11499 8.00028 8.21166 7.97095 8.29388 7.91601C8.37611 7.86107 8.44019 7.78298 8.47804 7.69162C8.51588 7.60026 8.52578 7.49972 8.50649 7.40273C8.4872 7.30574 8.43958 7.21665 8.36965 7.14673C8.29972 7.0768 8.21063 7.02918 8.11364 7.00989C8.01665 6.99059 7.91612 7.0005 7.82475 7.03834C7.73339 7.07618 7.6553 7.14027 7.60036 7.22249C7.54542 7.30472 7.5161 7.40139 7.5161 7.50028C7.5161 7.63289 7.56877 7.76006 7.66254 7.85383C7.75631 7.9476 7.88349 8.00028 8.0161 8.00028ZM12.7661 12.5003C13.0133 12.5003 13.255 12.427 13.4606 12.2896C13.6661 12.1523 13.8263 11.957 13.9209 11.7286C14.0156 11.5002 14.0403 11.2489 13.9921 11.0064C13.9438 10.7639 13.8248 10.5412 13.65 10.3664C13.4752 10.1916 13.2524 10.0725 13.01 10.0243C12.7675 9.97607 12.5161 10.0008 12.2877 10.0954C12.0593 10.19 11.8641 10.3503 11.7268 10.5558C11.5894 10.7614 11.5161 11.0031 11.5161 11.2503C11.5161 11.5818 11.6478 11.8997 11.8822 12.1342C12.1166 12.3686 12.4346 12.5003 12.7661 12.5003Z" fill="#5347CD"/>
<path d="M5.25666 8.12109L7.87354 9.62672L7.0101 10.0355L6.89697 10.0898C6.3126 10.3727 4.75822 11.1252 3.17103 11.2189C3.04947 11.2261 2.9376 11.2295 2.83416 11.2295C2.1876 11.2286 1.84385 11.0627 1.63291 10.9377L1.0001 10.5002L5.25666 8.12109Z" fill="#5347CD"/>
</svg>
