<svg width="14" height="14" viewBox="0 0 14 14" fill="none" xmlns="http://www.w3.org/2000/svg">
<path d="M10.9093 10.0777L13.7646 12.9323L12.8213 13.8757L9.96659 11.0203C8.90442 11.8718 7.58326 12.3349 6.22192 12.333C2.90992 12.333 0.221924 9.64501 0.221924 6.33301C0.221924 3.02101 2.90992 0.333008 6.22192 0.333008C9.53392 0.333008 12.2219 3.02101 12.2219 6.33301C12.2239 7.69434 11.7607 9.0155 10.9093 10.0777ZM9.57192 9.58301C10.4178 8.71281 10.8903 7.54659 10.8886 6.33301C10.8886 3.75501 8.79992 1.66634 6.22192 1.66634C3.64392 1.66634 1.55526 3.75501 1.55526 6.33301C1.55526 8.91101 3.64392 10.9997 6.22192 10.9997C7.4355 11.0014 8.60173 10.5289 9.47192 9.68301L9.57192 9.58301ZM7.00726 3.78367C6.81068 3.87247 6.63857 4.00764 6.50572 4.17758C6.37286 4.34752 6.28322 4.54715 6.24449 4.75935C6.20575 4.97155 6.21907 5.18998 6.28332 5.3959C6.34756 5.60181 6.46081 5.78907 6.61333 5.9416C6.76586 6.09413 6.95312 6.20737 7.15904 6.27161C7.36495 6.33586 7.58338 6.34918 7.79558 6.31045C8.00778 6.27171 8.20742 6.18207 8.37735 6.04921C8.54729 5.91636 8.68246 5.74426 8.77126 5.54767C8.94646 6.11676 8.92615 6.72811 8.71358 7.28431C8.501 7.84051 8.10839 8.30957 7.59829 8.61674C7.0882 8.92391 6.48998 9.05152 5.89894 8.97925C5.3079 8.90697 4.75806 8.63896 4.33702 8.21792C3.91598 7.79688 3.64797 7.24703 3.57569 6.65599C3.50341 6.06496 3.63102 5.46673 3.93819 4.95664C4.24537 4.44654 4.71442 4.05393 5.27062 3.84136C5.82683 3.62878 6.43817 3.60848 7.00726 3.78367Z" fill="#107C10"/>
</svg>
