<svg width="24" height="24" viewBox="0 0 24 24" fill="none" xmlns="http://www.w3.org/2000/svg">
<path d="M15.5625 9.6V8C15.5625 5.76 13.775 4 11.5 4C9.225 4 7.4375 5.76 7.4375 8V9.6C6.05625 9.6 5 10.64 5 12V17.6C5 18.96 6.05625 20 7.4375 20H15.5625C16.9438 20 18 18.96 18 17.6V12C18 10.64 16.9438 9.6 15.5625 9.6ZM9.0625 8C9.0625 6.64 10.1188 5.6 11.5 5.6C12.8812 5.6 13.9375 6.64 13.9375 8V9.6H9.0625V8ZM12.3938 14.8L12.3125 14.88V16C12.3125 16.48 11.9875 16.8 11.5 16.8C11.0125 16.8 10.6875 16.48 10.6875 16V14.88C10.2 14.4 10.1187 13.68 10.6062 13.2C11.0937 12.72 11.825 12.64 12.3125 13.12C12.8 13.52 12.8813 14.32 12.3938 14.8Z" fill="#A8B8B4"/>
</svg>
