<svg width="13" height="15" viewBox="0 0 13 15" fill="none" xmlns="http://www.w3.org/2000/svg">
<path d="M7.87774 0.282251L8.22602 1.35305C8.33432 1.67859 8.51712 1.97441 8.75988 2.21699C9.00265 2.45957 9.29869 2.64223 9.62448 2.75044L10.6961 3.09845L10.7175 3.10381C10.8001 3.13292 10.8716 3.18692 10.9222 3.25836C10.9728 3.3298 11 3.41516 11 3.50268C11 3.5902 10.9728 3.67556 10.9222 3.747C10.8716 3.81844 10.8001 3.87244 10.7175 3.90155L9.64591 4.24956C9.32012 4.35778 9.02408 4.54044 8.78131 4.78302C8.53855 5.0256 8.35575 5.32141 8.24745 5.64696L7.89918 6.71775C7.87004 6.80029 7.816 6.87175 7.7445 6.92231C7.67301 6.97286 7.58758 7.00001 7.5 7.00001C7.41242 7.00001 7.32699 6.97286 7.2555 6.92231C7.24844 6.91732 7.24157 6.91213 7.23486 6.90675C7.17359 6.85755 7.12709 6.79215 7.10082 6.71775L6.75255 5.64696C6.73383 5.59014 6.71284 5.53422 6.68966 5.47932C6.57963 5.21872 6.42023 4.98116 6.21968 4.77999C6.18154 4.74173 6.14208 4.70496 6.10139 4.66973C5.88302 4.48064 5.62919 4.33588 5.35408 4.24421L4.28247 3.8962C4.19987 3.86708 4.12835 3.81308 4.07776 3.74164C4.02717 3.6702 4 3.58484 4 3.49733C4 3.40981 4.02717 3.32445 4.07776 3.25301C4.12835 3.18157 4.19987 3.12757 4.28247 3.09845L5.35408 2.75044C5.67591 2.63941 5.96768 2.45549 6.20656 2.21307C6.44544 1.97065 6.62497 1.67631 6.73111 1.35305L7.07939 0.282251C7.10853 0.19972 7.16257 0.128252 7.23406 0.0776997C7.30556 0.0271473 7.39098 0 7.47857 0C7.56615 0 7.65158 0.0271473 7.72307 0.0776997C7.79457 0.128252 7.84861 0.19972 7.87774 0.282251ZM12.7829 8.21319L12.0175 7.96461C11.7848 7.88731 11.5733 7.75684 11.3999 7.58357C11.2265 7.4103 11.0959 7.199 11.0186 6.96647L10.7698 6.20161C10.749 6.14266 10.7104 6.09161 10.6593 6.05551C10.6083 6.0194 10.5473 6.00001 10.4847 6.00001C10.4221 6.00001 10.3611 6.0194 10.31 6.05551C10.259 6.09161 10.2204 6.14266 10.1996 6.20161L9.9508 6.96647C9.87498 7.19737 9.74675 7.40762 9.57611 7.58077C9.40548 7.75392 9.19708 7.8853 8.9672 7.96461L8.20176 8.21319C8.14277 8.23398 8.09168 8.27255 8.05554 8.32358C8.01941 8.37461 8 8.43558 8 8.4981C8 8.56061 8.01941 8.62158 8.05554 8.67261C8.09168 8.72364 8.14277 8.76221 8.20176 8.78301L8.9672 9.03158C9.20032 9.10926 9.41205 9.24032 9.58548 9.41428C9.75891 9.58824 9.88926 9.80031 9.9661 10.0335L10.2149 10.7984C10.2357 10.8574 10.2743 10.9084 10.3254 10.9445C10.3764 10.9806 10.4374 11 10.5 11C10.5626 11 10.6236 10.9806 10.6746 10.9445C10.7257 10.9084 10.7643 10.8574 10.7851 10.7984L11.0339 10.0335C11.1113 9.80101 11.2418 9.58972 11.4152 9.41645C11.5886 9.24317 11.8001 9.11271 12.0328 9.03541L12.7982 8.78683C12.8572 8.76603 12.9083 8.72746 12.9445 8.67643C12.9806 8.62541 13 8.56443 13 8.50192C13 8.43941 12.9806 8.37844 12.9445 8.32741C12.9083 8.27638 12.8572 8.23781 12.7982 8.21701L12.7829 8.21319ZM10 11.9009C9.91469 11.8659 9.83298 11.8221 9.75614 11.7696C9.53594 11.6094 9.3758 11.399 9.27571 11.1486L9.01547 10.3473C9.0106 10.3343 9.00548 10.3213 9 10.3084V13C9 13.5523 8.55229 14 8 14H2C1.44772 14 1 13.5523 1 13V3C1 2.44772 1.44772 2 2 2H4.42985L5.04186 1.80334C5.202 1.75326 5.36215 1.64308 5.49227 1.51287C5.62238 1.38266 5.72248 1.22239 5.78253 1.0421L5.79629 1H2C0.895431 1 0 1.89543 0 3V13C0 14.1046 0.89543 15 2 15H8C9.10457 15 10 14.1046 10 13V11.9009ZM6.58988 8.49194C6.82312 8.44961 7 8.24546 7 8C7 7.72386 6.77614 7.5 6.5 7.5H3.5L3.41012 7.50806C3.17688 7.55039 3 7.75454 3 8C3 8.27614 3.22386 8.5 3.5 8.5H6.5L6.58988 8.49194ZM7 11.4919C7 11.7374 6.82312 11.9416 6.58988 11.9839L6.5 11.9919H3.5C3.22386 11.9919 3 11.7681 3 11.4919C3 11.2465 3.17688 11.0423 3.41012 11L3.5 10.9919H6.5C6.77614 10.9919 7 11.2158 7 11.4919Z" fill="#424242"/>
</svg>
