<svg width="20" height="21" viewBox="0 0 20 21" fill="none" xmlns="http://www.w3.org/2000/svg">
<path d="M13 8.55273C13.5523 8.55273 14 8.10502 14 7.55273C14 7.00045 13.5523 6.55273 13 6.55273C12.4477 6.55273 12 7.00045 12 7.55273C12 8.10502 12.4477 8.55273 13 8.55273Z" fill="#616161"/>
<path d="M9.5 14.5527V14.0527H10.5C10.7761 14.0527 11 13.8289 11 13.5527V12.5527H12C14.2091 12.5527 16 10.7619 16 8.55273C16 6.3436 14.2091 4.55273 12 4.55273C9.79086 4.55273 8 6.3436 8 8.55273C8 8.94484 8.05656 9.32444 8.16219 9.68344L4.29289 13.5527C4.10536 13.7403 4 13.9946 4 14.2598V15.5527C4 16.105 4.44772 16.5527 5 16.5527H7C7.55229 16.5527 8 16.105 8 15.5527V15.0527H9C9.27614 15.0527 9.5 14.8289 9.5 14.5527ZM9 8.55273C9 6.89588 10.3431 5.55273 12 5.55273C13.6569 5.55273 15 6.89588 15 8.55273C15 10.2096 13.6569 11.5527 12 11.5527H10.5C10.2239 11.5527 10 11.7766 10 12.0527V13.0527H9C8.72386 13.0527 8.5 13.2766 8.5 13.5527V14.0527H7.5C7.22386 14.0527 7 14.2766 7 14.5527V15.5527H5V14.2598L9.08898 10.1709C9.22904 10.0308 9.27321 9.82128 9.20163 9.63659C9.07157 9.30109 9 8.93586 9 8.55273Z" fill="#616161"/>
</svg>
