<svg width="61" height="60" viewBox="0 0 61 60" fill="none" xmlns="http://www.w3.org/2000/svg">
<path d="M27.8 51H33.05V47.25C35.55 46.8 37.7 45.825 39.5 44.325C41.3 42.825 42.2 40.6 42.2 37.65C42.2 35.55 41.6 33.625 40.4 31.875C39.2 30.125 36.8 28.6 33.2 27.3C30.2 26.3 28.125 25.425 26.975 24.675C25.825 23.925 25.25 22.9 25.25 21.6C25.25 20.3 25.7125 19.275 26.6375 18.525C27.5625 17.775 28.9 17.4 30.65 17.4C32.25 17.4 33.5 17.7875 34.4 18.5625C35.3 19.3375 35.95 20.3 36.35 21.45L41.15 19.5C40.6 17.75 39.5875 16.225 38.1125 14.925C36.6375 13.625 35 12.9 33.2 12.75V9H27.95V12.75C25.45 13.3 23.5 14.4 22.1 16.05C20.7 17.7 20 19.55 20 21.6C20 23.95 20.6875 25.85 22.0625 27.3C23.4375 28.75 25.6 30 28.55 31.05C31.7 32.2 33.8875 33.225 35.1125 34.125C36.3375 35.025 36.95 36.2 36.95 37.65C36.95 39.3 36.3625 40.5125 35.1875 41.2875C34.0125 42.0625 32.6 42.45 30.95 42.45C29.3 42.45 27.8375 41.9375 26.5625 40.9125C25.2875 39.8875 24.35 38.35 23.75 36.3L18.8 38.25C19.5 40.65 20.5875 42.5875 22.0625 44.0625C23.5375 45.5375 25.45 46.55 27.8 47.1V51ZM30.5 60C26.35 60 22.45 59.2125 18.8 57.6375C15.15 56.0625 11.975 53.925 9.275 51.225C6.575 48.525 4.4375 45.35 2.8625 41.7C1.2875 38.05 0.5 34.15 0.5 30C0.5 25.85 1.2875 21.95 2.8625 18.3C4.4375 14.65 6.575 11.475 9.275 8.775C11.975 6.075 15.15 3.9375 18.8 2.3625C22.45 0.7875 26.35 0 30.5 0C34.65 0 38.55 0.7875 42.2 2.3625C45.85 3.9375 49.025 6.075 51.725 8.775C54.425 11.475 56.5625 14.65 58.1375 18.3C59.7125 21.95 60.5 25.85 60.5 30C60.5 34.15 59.7125 38.05 58.1375 41.7C56.5625 45.35 54.425 48.525 51.725 51.225C49.025 53.925 45.85 56.0625 42.2 57.6375C38.55 59.2125 34.65 60 30.5 60Z" fill="#52B639"/>
</svg>
