<svg width="18" height="18" viewBox="0 0 18 18" fill="none" xmlns="http://www.w3.org/2000/svg">
<path d="M8.13794 1.05859L12.0979 1.05859L17.22 6.35937L17.22 14.1514C17.2199 15.6925 15.9701 16.9414 14.429 16.9414H8.13794C6.59684 16.9413 5.34801 15.6925 5.3479 14.1514L5.3479 3.84863C5.34801 2.30754 6.59684 1.0587 8.13794 1.05859Z" stroke="#E0E0E0" stroke-width="1.11628"/>
<rect x="0.777832" y="8.01172" width="11.4607" height="6.9186" rx="1.95349" fill="#D82042"/>
<path d="M2.67773 13.1513L2.67773 9.84473H3.81661C4.06519 9.84473 4.27112 9.89155 4.43441 9.98519C4.59771 10.0788 4.71991 10.2069 4.80104 10.3694C4.88216 10.5309 4.92273 10.7128 4.92273 10.9152C4.92273 11.1186 4.88164 11.3016 4.79948 11.4641C4.71835 11.6256 4.59562 11.7536 4.43129 11.8484C4.268 11.942 4.06259 11.9888 3.81505 11.9888H3.03188V11.5658H3.77137C3.92842 11.5658 4.05583 11.5378 4.15359 11.4819C4.25136 11.4248 4.32313 11.3473 4.36889 11.2494C4.41465 11.1514 4.43753 11.04 4.43753 10.9152C4.43753 10.7903 4.41465 10.6794 4.36889 10.5826C4.32313 10.4857 4.25084 10.4098 4.15203 10.3549C4.05427 10.3 3.9253 10.2726 3.76513 10.2726H3.15981L3.15981 13.1513H2.67773Z" fill="white"/>
<path d="M6.52223 13.1513H5.48788L5.48788 9.84473H6.55499C6.86805 9.84473 7.13691 9.91092 7.36156 10.0433C7.58622 10.1746 7.75835 10.3635 7.87796 10.61C7.99861 10.8554 8.05893 11.1498 8.05893 11.4932C8.05893 11.8376 7.99809 12.1336 7.8764 12.3812C7.75575 12.6287 7.58102 12.8192 7.3522 12.9527C7.12339 13.0851 6.84673 13.1513 6.52223 13.1513ZM5.96995 12.7154H6.4957C6.73908 12.7154 6.94137 12.668 7.10259 12.5733C7.2638 12.4775 7.38444 12.3392 7.46453 12.1583C7.54462 11.9764 7.58466 11.7547 7.58466 11.4932C7.58466 11.2338 7.54462 11.0136 7.46453 10.8328C7.38548 10.652 7.26744 10.5148 7.11039 10.4211C6.95334 10.3275 6.75832 10.2806 6.52535 10.2806H5.96995L5.96995 12.7154Z" fill="white"/>
<path d="M8.6584 13.1513L8.6584 9.84473H10.6397V10.2742H9.14047V11.2817H10.4978V11.7095H9.14047L9.14047 13.1513H8.6584Z" fill="white"/>
</svg>
