<svg width="16" height="16" viewBox="0 0 16 16" fill="none" xmlns="http://www.w3.org/2000/svg">
<path d="M8.38867 0.5C12.5308 0.5 15.8887 3.85786 15.8887 8C15.8887 12.1421 12.5308 15.5 8.38867 15.5C4.24654 15.5 0.888672 12.1421 0.888672 8C0.888672 3.85786 4.24654 0.5 8.38867 0.5Z" fill="url(#paint0_linear_667_38679)"/>
<path fill-rule="evenodd" clip-rule="evenodd" d="M8.85742 4.71875C8.85742 4.45987 8.64756 4.25 8.38867 4.25C8.12979 4.25 7.91992 4.45987 7.91992 4.71875V8.9375C7.91992 9.19638 8.12979 9.40625 8.38867 9.40625C8.64756 9.40625 8.85742 9.19638 8.85742 8.9375V4.71875ZM8.38867 11.75C8.777 11.75 9.0918 11.4352 9.0918 11.0469C9.0918 10.6586 8.777 10.3438 8.38867 10.3438C8.00035 10.3438 7.68555 10.6586 7.68555 11.0469C7.68555 11.4352 8.00035 11.75 8.38867 11.75Z" fill="url(#paint1_linear_667_38679)"/>
<defs>
<linearGradient id="paint0_linear_667_38679" x1="3.23242" y1="-1.84375" x2="13.0762" y2="16.9063" gradientUnits="userSpaceOnUse">
<stop stop-color="#FFCD0F"/>
<stop offset="1" stop-color="#FE8401"/>
</linearGradient>
<linearGradient id="paint1_linear_667_38679" x1="6.51367" y1="4.25" x2="10.2637" y2="11.75" gradientUnits="userSpaceOnUse">
<stop stop-color="#4A4A4A"/>
<stop offset="1" stop-color="#242424"/>
</linearGradient>
</defs>
</svg>
