<svg width="25" height="24" viewBox="0 0 25 24" fill="none" xmlns="http://www.w3.org/2000/svg">
<path d="M16.7469 5.38176L16.0252 6.1035C13.3157 4.36507 9.66985 4.68065 7.30025 7.05025C4.56658 9.78392 4.56658 14.2161 7.30025 16.9497C10.0339 19.6834 14.4661 19.6834 17.1997 16.9497C17.395 16.7545 17.7116 16.7545 17.9069 16.9497C18.1021 17.145 18.1021 17.4616 17.9069 17.6569C14.7827 20.781 9.71734 20.781 6.59315 17.6569C3.46895 14.5327 3.46895 9.46734 6.59315 6.34315C9.35481 3.58148 13.6332 3.26102 16.7469 5.38176ZM13.8122 8.31651L14.563 7.56566C12.6781 6.58178 10.2976 6.88138 8.71447 8.46447C6.76184 10.4171 6.76184 13.5829 8.71447 15.5355C10.6671 17.4882 13.8329 17.4882 15.7855 15.5355C15.9808 15.3403 15.9808 15.0237 15.7855 14.8284C15.5903 14.6332 15.2737 14.6332 15.0784 14.8284C13.5163 16.3905 10.9837 16.3905 9.42157 14.8284C7.85948 13.2663 7.85948 10.7337 9.42157 9.17157C10.6086 7.98456 12.356 7.69954 13.8122 8.31651ZM18.1036 6.14645C18.2988 6.34171 18.2988 6.65829 18.1036 6.85355L13.2161 11.741C13.2382 11.8236 13.25 11.9104 13.25 12C13.25 12.5523 12.8023 13 12.25 13C11.6977 13 11.25 12.5523 11.25 12C11.25 11.4477 11.6977 11 12.25 11C12.3396 11 12.4264 11.0118 12.509 11.0339L17.3964 6.14645C17.5917 5.95118 17.9083 5.95118 18.1036 6.14645ZM19.25 15.5C19.25 15.7761 19.0261 16 18.75 16C18.4739 16 18.25 15.7761 18.25 15.5C18.25 15.2239 18.4739 15 18.75 15C19.0261 15 19.25 15.2239 19.25 15.5ZM18.75 9C19.0261 9 19.25 8.77614 19.25 8.5C19.25 8.22386 19.0261 8 18.75 8C18.4739 8 18.25 8.22386 18.25 8.5C18.25 8.77614 18.4739 9 18.75 9ZM20.25 13.25C20.25 13.5261 20.0261 13.75 19.75 13.75C19.4739 13.75 19.25 13.5261 19.25 13.25C19.25 12.9739 19.4739 12.75 19.75 12.75C20.0261 12.75 20.25 12.9739 20.25 13.25ZM19.75 11.25C20.0261 11.25 20.25 11.0261 20.25 10.75C20.25 10.4739 20.0261 10.25 19.75 10.25C19.4739 10.25 19.25 10.4739 19.25 10.75C19.25 11.0261 19.4739 11.25 19.75 11.25ZM17.25 13.25C17.25 13.5261 17.0261 13.75 16.75 13.75C16.4739 13.75 16.25 13.5261 16.25 13.25C16.25 12.9739 16.4739 12.75 16.75 12.75C17.0261 12.75 17.25 12.9739 17.25 13.25ZM16.75 11.25C17.0261 11.25 17.25 11.0261 17.25 10.75C17.25 10.4739 17.0261 10.25 16.75 10.25C16.4739 10.25 16.25 10.4739 16.25 10.75C16.25 11.0261 16.4739 11.25 16.75 11.25Z" fill="#616161"/>
</svg>
