<svg width="93" height="92" viewBox="0 0 93 92" fill="none" xmlns="http://www.w3.org/2000/svg">
<path d="M46.5 90C70.8005 90 90.5 70.3005 90.5 46C90.5 21.6995 70.8005 2 46.5 2C22.1995 2 2.5 21.6995 2.5 46C2.5 70.3005 22.1995 90 46.5 90Z" fill="#EFF6FF"/>
<path d="M71.04 25.46C76.1785 31.5921 78.8336 39.4266 78.482 47.4193C78.1304 55.4121 74.7975 62.9831 69.1403 68.6403C63.4831 74.2975 55.9121 77.6304 47.9193 77.982C39.9266 78.3336 32.0921 75.6785 25.96 70.54C28.8112 73.9425 32.3391 76.7145 36.3195 78.6799C40.2999 80.6453 44.6457 81.761 49.0806 81.9561C53.5155 82.1512 57.9425 81.4214 62.0801 79.8132C66.2177 78.205 69.9755 75.7534 73.1144 72.6144C76.2534 69.4755 78.705 65.7177 80.3132 61.5801C81.9214 57.4425 82.6512 53.0155 82.4561 48.5806C82.261 44.1457 81.1453 39.7999 79.1799 35.8195C77.2145 31.8391 74.4425 28.3112 71.04 25.46Z" fill="#60A4FF"/>
<path d="M46.5 78C64.1731 78 78.5 63.6731 78.5 46C78.5 28.3269 64.1731 14 46.5 14C28.8269 14 14.5 28.3269 14.5 46C14.5 63.6731 28.8269 78 46.5 78Z" fill="#DFEDFF"/>
<path d="M46.5001 66C45.0553 66.0005 43.6247 65.7164 42.2898 65.1639C40.9549 64.6114 39.7419 63.8013 38.7201 62.78C38.4267 62.3925 38.2845 61.9114 38.32 61.4266C38.3555 60.9419 38.5664 60.4867 38.9131 60.1461C39.2598 59.8054 39.7187 59.6028 40.204 59.5759C40.6893 59.549 41.1678 59.6998 41.5501 60C42.3672 60.8004 43.368 61.3883 44.4649 61.7124C45.5618 62.0365 46.7214 62.0868 47.8423 61.8591C48.9632 61.6313 50.0111 61.1323 50.8946 60.4058C51.778 59.6793 52.4699 58.7474 52.9098 57.6916C53.3497 56.6358 53.5242 55.4882 53.4181 54.3494C53.3119 53.2106 52.9282 52.1151 52.3007 51.1588C51.6732 50.2025 50.8209 49.4146 49.8184 48.8639C48.8159 48.3133 47.6937 48.0166 46.5501 48C44.7414 47.9994 42.9607 47.5528 41.3658 46.6998C39.7709 45.8467 38.411 44.6136 37.4064 43.1095C36.4018 41.6055 35.7836 39.8769 35.6066 38.0769C35.4295 36.2769 35.699 34.461 36.3912 32.79C37.0835 31.119 38.1771 29.6445 39.5752 28.497C40.9733 27.3496 42.6328 26.5646 44.4067 26.2116C46.1806 25.8585 48.0142 25.9484 49.7451 26.4731C51.476 26.9979 53.0508 27.9414 54.3301 29.22C54.5159 29.4058 54.6633 29.6264 54.7638 29.8692C54.8644 30.112 54.9162 30.3722 54.9162 30.635C54.9162 30.8978 54.8644 31.158 54.7638 31.4008C54.6633 31.6436 54.5159 31.8642 54.3301 32.05C54.1442 32.2358 53.9236 32.3832 53.6809 32.4838C53.4381 32.5844 53.1779 32.6361 52.9151 32.6361C52.6523 32.6361 52.3921 32.5844 52.1493 32.4838C51.9065 32.3832 51.6859 32.2358 51.5001 32.05C50.683 31.2496 49.6822 30.6617 48.5853 30.3376C47.4883 30.0135 46.3287 29.9632 45.2078 30.1909C44.087 30.4187 43.039 30.9177 42.1556 31.6442C41.2722 32.3707 40.5802 33.3026 40.1403 34.3584C39.7004 35.4142 39.5259 36.5618 39.6321 37.7006C39.7383 38.8394 40.1219 39.9349 40.7494 40.8912C41.3769 41.8475 42.2292 42.6354 43.2317 43.1861C44.2342 43.7367 45.3564 44.0334 46.5001 44.05C49.4174 44.05 52.2153 45.2089 54.2782 47.2718C56.3411 49.3347 57.5001 52.1326 57.5001 55.05C57.5001 57.9674 56.3411 60.7653 54.2782 62.8282C52.2153 64.8911 49.4174 66.05 46.5001 66.05V66Z" fill="#2F67F3"/>
<path d="M46.5 72C45.9696 72 45.4609 71.7893 45.0858 71.4142C44.7107 71.0391 44.5 70.5304 44.5 70V22C44.5 21.4696 44.7107 20.9609 45.0858 20.5858C45.4609 20.2107 45.9696 20 46.5 20C47.0304 20 47.5391 20.2107 47.9142 20.5858C48.2893 20.9609 48.5 21.4696 48.5 22V70C48.5 70.5304 48.2893 71.0391 47.9142 71.4142C47.5391 71.7893 47.0304 72 46.5 72Z" fill="#2F67F3"/>
<path d="M46.5 80C39.7755 80 33.2019 78.006 27.6106 74.27C22.0194 70.534 17.6615 65.2239 15.0881 59.0113C12.5147 52.7986 11.8414 45.9623 13.1533 39.3669C14.4652 32.7716 17.7034 26.7134 22.4584 21.9584C27.2134 17.2034 33.2716 13.9652 39.8669 12.6533C46.4623 11.3414 53.2986 12.0147 59.5113 14.5881C65.7239 17.1615 71.034 21.5194 74.77 27.1106C78.506 32.7019 80.5 39.2755 80.5 46C80.5 50.465 79.6206 54.8862 77.9119 59.0113C76.2033 63.1363 73.6988 66.8845 70.5416 70.0416C67.3845 73.1988 63.6363 75.7033 59.5113 77.4119C55.3862 79.1206 50.965 80 46.5 80ZM46.5 16C40.5666 16 34.7664 17.7595 29.8329 21.0559C24.8994 24.3524 21.0543 29.0377 18.7836 34.5195C16.513 40.0013 15.9189 46.0333 17.0765 51.8527C18.234 57.6722 21.0912 63.0176 25.2868 67.2132C29.4824 71.4088 34.8279 74.266 40.6473 75.4236C46.4667 76.5811 52.4987 75.987 57.9805 73.7164C63.4623 71.4458 68.1477 67.6006 71.4441 62.6671C74.7406 57.7336 76.5 51.9335 76.5 46C76.5 38.0435 73.3393 30.4129 67.7132 24.7868C62.0871 19.1607 54.4565 16 46.5 16Z" fill="#2F67F3"/>
<path d="M15.3898 79.11C15.1266 79.1115 14.8657 79.0611 14.622 78.9615C14.3784 78.862 14.1567 78.7154 13.9698 78.53C7.53539 72.0968 3.15332 63.8998 1.37789 54.9759C-0.397543 46.0519 0.513421 36.8019 3.99556 28.3957C7.4777 19.9896 13.3746 12.8049 20.9404 7.75043C28.5062 2.69597 37.401 -0.00122137 46.4999 4.14902e-07C47.0303 4.14902e-07 47.539 0.210714 47.9141 0.585787C48.2891 0.96086 48.4999 1.46957 48.4999 2C48.4999 2.53043 48.2891 3.03914 47.9141 3.41421C47.539 3.78929 47.0303 4 46.4999 4C38.1926 3.9994 30.0717 6.46233 23.1643 11.0773C16.2569 15.6923 10.8732 22.252 7.69405 29.9269C4.51492 37.6018 3.68317 46.047 5.304 54.1946C6.92483 62.3422 10.9254 69.8262 16.7998 75.7C16.9858 75.8857 17.1333 76.1063 17.234 76.3491C17.3346 76.5919 17.3864 76.8522 17.3864 77.115C17.3864 77.3778 17.3346 77.6381 17.234 77.8809C17.1333 78.1237 16.9858 78.3443 16.7998 78.53C16.4249 78.9019 15.918 79.1104 15.3898 79.11ZM46.4999 92C45.9694 92 45.4607 91.7893 45.0856 91.4142C44.7106 91.0391 44.4999 90.5304 44.4999 90C44.4999 89.4696 44.7106 88.9609 45.0856 88.5858C45.4607 88.2107 45.9694 88 46.4999 88C54.8071 88.0006 62.928 85.5377 69.8354 80.9227C76.7428 76.3077 82.1265 69.748 85.3056 62.0731C88.4848 54.3982 89.3165 45.953 87.6957 37.8054C86.0749 29.6578 82.0743 22.1738 76.1998 16.3C75.8246 15.9247 75.6137 15.4157 75.6137 14.885C75.6137 14.3543 75.8246 13.8453 76.1998 13.47C76.5751 13.0947 77.0841 12.8839 77.6148 12.8839C78.1456 12.8839 78.6546 13.0947 79.0298 13.47C85.4643 19.9032 89.8464 28.1002 91.6218 37.0241C93.3972 45.9481 92.4863 55.1981 89.0041 63.6043C85.522 72.0104 79.6251 79.1951 72.0593 84.2496C64.4935 89.304 55.5987 92.0012 46.4999 92Z" fill="#2F67F3"/>
</svg>
