<svg width="11" height="11" viewBox="0 0 11 11" fill="none" xmlns="http://www.w3.org/2000/svg">
<g clip-path="url(#clip0_659_15523)">
<path d="M3.14179 3.25418L0.380615 6.01962L3.14605 8.78079L5.91148 6.01962L3.14179 3.25418ZM1.5865 6.01962L3.14605 4.46007L4.70134 6.01962L3.14179 7.57917L1.5865 6.01962ZM8.26359 3.35219C7.51791 2.60224 6.5336 2.22727 5.55355 2.22727V0.84668L3.74686 2.65337L5.55355 4.46007V3.07948C6.31629 3.07948 7.07902 3.36923 7.66278 3.953C8.82605 5.11627 8.82605 7.00819 7.66278 8.17146C7.07902 8.75522 6.31629 9.04498 5.55355 9.04498C5.14023 9.04498 4.72691 8.95549 4.34341 8.78505L3.70851 9.41995C4.28375 9.73527 4.91865 9.89719 5.55355 9.89719C6.5336 9.89719 7.51791 9.52222 8.26359 8.77227C9.76349 7.27663 9.76349 4.84782 8.26359 3.35219Z" fill="white"/>
</g>
<defs>
<clipPath id="clip0_659_15523">
<rect width="10.2266" height="10.2266" fill="white" transform="translate(0.0136719 0.522461)"/>
</clipPath>
</defs>
</svg>
