<svg width="12" height="12" viewBox="0 0 12 12" fill="none" xmlns="http://www.w3.org/2000/svg">
<path d="M4.25 5.75C4.66421 5.75 5 5.41421 5 5C5 4.58579 4.66421 4.25 4.25 4.25C3.83579 4.25 3.5 4.58579 3.5 5C3.5 5.41421 3.83579 5.75 4.25 5.75ZM4.13646 7.66654C3.95229 7.46078 3.6362 7.44327 3.43043 7.62743C3.22467 7.8116 3.20716 8.12769 3.39132 8.33346C4.03148 9.0487 4.96337 9.5 6 9.5C7.03663 9.5 7.96851 9.0487 8.60867 8.33346C8.79283 8.12769 8.77532 7.8116 8.56956 7.62743C8.3638 7.44327 8.0477 7.46078 7.86353 7.66654C7.40505 8.1788 6.74037 8.5 6 8.5C5.25963 8.5 4.59494 8.1788 4.13646 7.66654ZM8.5 5C8.5 5.41421 8.16421 5.75 7.75 5.75C7.33579 5.75 7 5.41421 7 5C7 4.58579 7.33579 4.25 7.75 4.25C8.16421 4.25 8.5 4.58579 8.5 5ZM12 6C12 2.68629 9.31371 0 6 0C2.68629 0 0 2.68629 0 6C0 9.31371 2.68629 12 6 12C9.31371 12 12 9.31371 12 6ZM1 6C1 3.23858 3.23858 1 6 1C8.76142 1 11 3.23858 11 6C11 8.76142 8.76142 11 6 11C3.23858 11 1 8.76142 1 6Z" fill="#242424"/>
</svg>
