<svg width="20" height="20" viewBox="0 0 20 20" fill="none" xmlns="http://www.w3.org/2000/svg">
<path d="M4 6.5C4 5.11929 5.11929 4 6.5 4H13.5C14.8807 4 16 5.11929 16 6.5V13.5C16 14.8807 14.8807 16 13.5 16H6.5C5.11929 16 4 14.8807 4 13.5V6.5ZM8 15H12V13L8 13V15ZM7 13H5V13.5C5 14.3284 5.67157 15 6.5 15H7V13ZM8 12L12 12V8L8 8V12ZM7 8H5V12H7V8ZM8 7L12 7V5H8V7ZM7 5H6.5C5.67157 5 5 5.67157 5 6.5V7H7V5ZM15 8H13V12H15V8ZM15 13H13V15H13.5C14.3284 15 15 14.3284 15 13.5V13ZM15 7V6.5C15 5.67157 14.3284 5 13.5 5H13V7H15Z" fill="#5347CD"/>
</svg>
