<svg width="15" height="14" viewBox="0 0 15 14" fill="none" xmlns="http://www.w3.org/2000/svg">
<path d="M7.88867 0C11.7547 0 14.8887 3.13401 14.8887 7C14.8887 10.866 11.7547 14 7.88867 14C4.02268 14 0.888672 10.866 0.888672 7C0.888672 3.13401 4.02268 0 7.88867 0ZM10.8273 4.94064C10.6754 4.78877 10.4397 4.7719 10.2692 4.89002L10.2086 4.94064L7.01367 8.13575L5.57303 6.6949L5.51244 6.64428C5.34193 6.52615 5.10618 6.54303 4.95431 6.6949C4.80244 6.84677 4.78557 7.08252 4.90369 7.25303L4.95431 7.31362L6.70431 9.06362L6.7649 9.11424C6.9141 9.2176 7.11324 9.2176 7.26244 9.11424L7.32303 9.06362L10.8273 5.55936L10.8779 5.49877C10.996 5.32826 10.9792 5.09251 10.8273 4.94064Z" fill="#107C10"/>
</svg>
