<svg width="13" height="13" viewBox="0 0 13 13" fill="none" xmlns="http://www.w3.org/2000/svg">
<path d="M6.27731 1.22266C3.39507 1.22266 1.04639 3.57134 1.04639 6.45358C1.04639 9.33582 3.39507 11.6845 6.27731 11.6845C9.15955 11.6845 11.5082 9.33582 11.5082 6.45358C11.5082 3.57134 9.15955 1.22266 6.27731 1.22266ZM8.7777 5.25047L5.81176 8.2164C5.73853 8.28964 5.63914 8.33149 5.53452 8.33149C5.4299 8.33149 5.33052 8.28964 5.25728 8.2164L3.77693 6.73605C3.62523 6.58436 3.62523 6.33327 3.77693 6.18157C3.92863 6.02988 4.17971 6.02988 4.33141 6.18157L5.53452 7.38469L8.22322 4.69599C8.37491 4.54429 8.626 4.54429 8.7777 4.69599C8.92939 4.84769 8.92939 5.09354 8.7777 5.25047Z" fill="#3EBF8F"/>
</svg>
